<svg width="240" height="241" viewBox="0 0 240 241" fill="none" xmlns="http://www.w3.org/2000/svg">
<path d="M80.3518 93.4116H61.5839L60.0479 103.823H81.8879L80.3518 93.4116Z" fill="white"/>
<path d="M80.1599 92.6886H61.3439C61.0079 92.6886 60.4319 92.785 60.3839 93.1706L59.0399 102.28L58.8479 103.63C58.7519 104.257 59.8079 104.546 60.2399 104.546H82.0799C82.5119 104.546 83.1359 104.401 83.0399 103.871L81.6959 94.7612L81.5039 93.4116C81.3599 92.544 79.0079 92.3512 79.1519 93.3634L80.4959 102.473L80.6879 103.823L81.6479 103.148H59.8079L61.1999 104.064L62.5439 94.954L62.7359 93.6044L61.7759 94.1346H80.5919C80.9759 94.1346 81.6479 93.99 81.5519 93.4598C81.4559 92.9296 80.5919 92.6886 80.1599 92.6886Z" fill="#000005"/>
<path d="M36.8162 39.6204H104.928C106.56 39.6204 107.856 40.9218 107.856 42.5606V90.7124C107.856 92.3512 106.56 93.6526 104.928 93.6526H36.8162C35.1842 93.6526 33.8882 92.3512 33.8882 90.7124V42.5124C33.9362 40.9218 35.2322 39.6204 36.8162 39.6204Z" fill="white"/>
<path d="M36.864 40.5362H104.352C104.544 40.5362 104.736 40.5362 104.928 40.5362C105.984 40.6326 106.608 41.6448 106.608 42.6088C106.656 45.067 106.608 47.5734 106.608 50.0316V82.422C106.608 85.1694 106.656 87.9168 106.608 90.6642C106.656 91.7246 105.888 92.5922 104.832 92.6404H38.592C38.016 92.6404 37.392 92.6886 36.816 92.6404C35.76 92.5922 35.136 91.5318 35.136 90.5678C35.136 90.375 35.136 90.134 35.136 89.9412V43.3318C35.136 43.0426 35.136 42.8016 35.136 42.5124C35.04 41.452 35.856 40.5844 36.864 40.5362C37.392 40.5362 38.064 40.1506 38.016 39.5722C37.968 38.9938 37.296 38.7046 36.768 38.7046C34.56 38.7046 32.784 40.4398 32.688 42.6088C32.688 42.8016 32.688 42.9944 32.688 43.1872V90.134C32.688 90.3268 32.688 90.5678 32.688 90.7606C32.736 92.9296 34.608 94.472 36.672 94.5202C37.2 94.5202 37.728 94.5202 38.256 94.5202H104.64C106.944 94.5202 109.008 93.026 109.056 90.616C109.056 89.893 109.056 89.1218 109.056 88.3988V44.585C109.056 43.862 109.056 43.139 109.056 42.416C109.008 40.1506 107.04 38.6564 104.88 38.6564C104.736 38.6564 104.64 38.6564 104.496 38.6564H36.768C36.24 38.6564 35.568 39.042 35.616 39.6204C35.664 40.1988 36.384 40.5362 36.864 40.5362Z" fill="#000005"/>
<path d="M36.816 38.9938H104.928C106.56 38.9938 107.856 40.2952 107.856 41.934C107.856 41.934 107.856 41.934 107.856 41.9822V82.3256H33.936V41.934C33.936 40.2952 35.232 38.9938 36.816 38.9938Z" fill="#000005"/>
<path d="M35.9039 39.4758H104.016C105.408 39.524 106.56 40.5844 106.752 41.9822C106.8 42.7052 106.8 43.4282 106.752 44.1994V82.663L108.816 81.7472H35.9519C35.6159 81.699 35.3279 81.699 34.9919 81.7472H34.8959L35.0879 81.8436V42.3678C35.0399 41.693 35.0879 40.97 35.3759 40.3434C35.4719 40.0542 35.6639 39.765 35.9039 39.4758C35.9999 39.4276 36.2399 39.3794 35.9519 39.4276C35.6639 39.4758 35.7599 39.4758 35.9039 39.4758C36.4799 39.4276 37.0079 39.283 37.4879 38.9938C37.6319 38.8974 38.2559 38.4636 37.7759 38.4636C35.5199 38.4636 32.8319 39.8614 32.8319 42.3678C32.8319 42.9944 32.8319 43.5728 32.8319 44.1994V81.94C32.7839 82.1328 32.7839 82.3738 32.8319 82.5666C32.8319 82.6148 32.8319 82.6148 32.8319 82.663C32.8799 82.7112 32.9759 82.7594 33.0239 82.7594H97.8239C100.8 82.7594 103.824 82.8076 106.8 82.7594H106.944C107.424 82.7594 107.856 82.6148 108.288 82.422C108.48 82.3256 109.008 82.1328 109.008 81.8436V41.8858C109.008 41.5002 109.008 41.1146 108.912 40.7772C108.528 39.4276 107.28 38.4636 105.888 38.5118C104.208 38.4636 102.528 38.5118 100.8 38.5118H37.7759C37.1999 38.56 36.6719 38.7046 36.1919 38.9938C36.0479 39.042 35.3759 39.4758 35.9039 39.4758Z" fill="#000005"/>
<path d="M71.52 86.8564H71.328H71.232C71.184 86.8564 70.752 86.76 70.944 86.8082L70.752 86.76C70.8 86.76 70.8 86.76 70.704 86.76C70.512 86.7118 70.656 86.76 70.704 86.76C70.752 86.76 70.656 86.7118 70.656 86.7118C70.704 86.7118 70.704 86.76 70.752 86.76L70.848 86.8082C70.848 86.8082 70.944 86.9046 70.896 86.8564C70.848 86.8082 70.944 86.9046 70.944 86.9046L70.992 86.9528C71.04 87.001 71.088 87.0492 71.136 87.0974C71.232 87.1938 71.28 87.3384 71.328 87.4348L71.28 87.3384C71.472 87.8204 71.376 88.3506 71.088 88.7362L71.136 88.6398C70.992 88.8326 70.8 88.9772 70.608 89.1218C70.56 89.17 70.608 89.1218 70.656 89.1218C70.608 89.1218 70.608 89.17 70.56 89.17C70.512 89.17 70.464 89.2182 70.368 89.2182C70.368 89.2182 70.56 89.2182 70.416 89.2182C70.224 89.2182 70.272 89.2182 70.416 89.2182C70.656 89.2182 70.224 89.2182 70.56 89.2182H70.656C70.56 89.2182 70.608 89.2182 70.848 89.2664C70.848 89.2664 71.184 89.3146 71.04 89.3146C71.04 89.3146 71.328 89.411 71.184 89.3628C71.472 89.4592 71.376 89.411 71.28 89.411C71.184 89.3628 71.184 89.411 71.28 89.411C71.376 89.4592 71.232 89.3628 71.184 89.3628C71.136 89.3628 71.136 89.3146 71.088 89.3146C71.04 89.2664 71.136 89.3628 71.088 89.3146C70.896 89.1218 70.8 88.929 70.704 88.7362L70.752 88.8326C70.608 88.3506 70.656 87.8204 70.944 87.4348L70.896 87.5312C71.04 87.3384 71.184 87.1938 71.376 87.0974L71.424 87.0492C71.328 87.0974 71.472 87.001 71.424 87.0492L71.568 87.001H71.664C71.76 86.9528 71.52 87.001 71.568 87.001H71.664C71.76 87.001 71.376 87.001 71.568 87.001C71.76 87.001 72.048 87.001 72.144 86.9046C72.24 86.8082 72.144 86.7118 72.048 86.6636C71.856 86.5672 71.616 86.4708 71.376 86.4226C71.088 86.3744 70.752 86.3262 70.464 86.3262C69.6 86.3262 68.736 86.6636 68.4 87.5312C68.16 88.2542 68.448 89.0736 69.12 89.4592C69.744 89.8448 70.464 90.0376 71.184 90.0376C71.76 90.0858 72.336 89.9894 72.864 89.7484C73.488 89.411 73.824 88.688 73.632 87.965C73.248 86.6154 71.616 86.3262 70.416 86.3262C70.224 86.3262 70.032 86.3744 69.84 86.4226C69.744 86.519 69.84 86.6154 69.936 86.6636C70.416 86.8082 70.992 86.9046 71.52 86.8564Z" fill="#2DBE61"/>
<path d="M104.784 42.0304H36.8159V79.289H104.784V42.0304Z" fill="white"/>
<path d="M36.7681 43.0427H102C102.864 43.0427 103.776 43.0909 104.64 43.0427C104.688 43.0427 104.736 43.0427 104.736 43.0427L103.584 42.1751V79.4819L104.832 78.4215H39.6001C38.7361 78.4215 37.8241 78.3733 36.9601 78.4215H36.8641L38.0161 79.2891V41.9823C38.0161 40.6327 35.6641 40.9701 35.6641 42.1751V79.4819C35.6641 80.1085 36.2401 80.3495 36.8161 80.3495H96.4801C99.2161 80.3495 101.952 80.4941 104.688 80.3495H104.784C105.408 80.3495 105.888 79.9157 106.032 79.2891V41.9823C106.032 41.3557 105.456 41.1147 104.88 41.1147H45.2161C42.4801 41.1147 39.7441 40.9701 37.0081 41.1147H36.9121C36.2881 41.1147 35.8081 41.5485 35.7121 42.1751C35.6161 42.8017 36.2401 43.0427 36.7681 43.0427Z" fill="#000005"/>
<path d="M41.9519 47.0432C42.4291 47.0432 42.8159 46.6547 42.8159 46.1756C42.8159 45.6964 42.4291 45.308 41.9519 45.308C41.4747 45.308 41.0879 45.6964 41.0879 46.1756C41.0879 46.6547 41.4747 47.0432 41.9519 47.0432Z" fill="#2DBE61"/>
<path d="M45.1682 46.995C45.6454 46.995 46.0322 46.6065 46.0322 46.1274C46.0322 45.6482 45.6454 45.2598 45.1682 45.2598C44.691 45.2598 44.3042 45.6482 44.3042 46.1274C44.3042 46.6065 44.691 46.995 45.1682 46.995Z" fill="#2DBE61"/>
<path d="M48.384 47.0432C48.8612 47.0432 49.248 46.6547 49.248 46.1756C49.248 45.6964 48.8612 45.308 48.384 45.308C47.9068 45.308 47.52 45.6964 47.52 46.1756C47.52 46.6547 47.9068 47.0432 48.384 47.0432Z" fill="#2DBE61"/>
<path d="M193.92 103.196H37.2002V194.198H193.92V103.196Z" fill="white"/>
<path d="M193.392 193.716H43.008C40.992 193.716 38.928 193.668 36.912 193.716H36.624L38.352 194.391V104.739C38.4 104.353 38.4 103.919 38.352 103.534C38.352 103.485 38.352 103.437 38.352 103.389L37.68 103.678H188.064C190.08 103.678 192.144 103.726 194.16 103.678C194.256 103.678 194.352 103.678 194.448 103.678L192.72 103.003V190.294C192.72 191.45 192.624 192.704 192.72 193.86C192.72 193.909 192.72 193.957 192.72 194.005C192.72 194.728 195.072 194.969 195.072 194.439V107.197C195.12 105.992 195.12 104.835 195.072 103.63C195.072 103.582 195.072 103.534 195.072 103.485C195.072 102.859 193.728 102.811 193.344 102.811H43.008C40.992 102.811 38.928 102.762 36.912 102.811H36.624C36.48 102.811 35.952 102.859 35.952 103.1V190.39C35.904 191.595 35.904 192.752 35.952 193.957C35.952 194.005 35.952 194.053 35.952 194.101C35.952 194.728 37.296 194.776 37.68 194.776H188.064C190.08 194.776 192.144 194.824 194.16 194.776H194.448C194.832 194.776 195.264 194.632 194.976 194.246C194.688 193.86 193.776 193.716 193.392 193.716Z" fill="#2DBE61"/>
<path d="M38.5438 120.163L42.6718 120.211L53.8078 120.355L70.4158 120.548L90.5278 120.789L112.704 121.078L134.928 121.368L155.808 121.609L173.328 121.801L186 121.946C187.968 121.994 189.984 121.994 191.952 121.994H192.192C192.528 121.994 193.248 121.946 193.152 121.464C193.056 120.982 192.096 120.837 191.76 120.837L187.632 120.789L176.496 120.645L159.888 120.452L139.776 120.211L117.6 119.922L95.3758 119.632L74.4958 119.391L56.9758 119.199L44.3038 119.054C42.2878 119.006 40.3198 119.006 38.3518 119.006H38.1118C37.7758 119.006 37.0558 119.054 37.1518 119.536C37.2478 120.018 38.1598 120.211 38.5438 120.163Z" fill="#2DBE61"/>
<path d="M85.536 193.378L85.488 186.052L85.296 168.507L85.104 147.299L84.912 128.983L84.864 122.91C84.912 121.946 84.912 120.982 84.816 120.066V119.922C84.816 119.295 82.416 119.391 82.416 120.066L82.464 127.393L82.656 144.937L82.848 166.145L83.04 184.461L83.088 190.535C83.04 191.499 83.04 192.463 83.136 193.378V193.523C83.136 194.15 85.536 194.053 85.536 193.378Z" fill="#2DBE61"/>
<path d="M75.552 141.708H42.864L44.304 142.913V125.754L43.392 126.621H76.08L74.64 125.416V142.576C74.64 143.829 76.992 144.311 76.992 142.913V125.754C76.944 125.031 76.32 124.501 75.6 124.549H75.552H42.912C42.432 124.549 42.048 124.934 42 125.416V142.576C42.048 143.299 42.672 143.829 43.392 143.781H43.44H76.128C76.656 143.781 77.04 143.347 77.04 142.817C77.04 142.768 77.04 142.72 77.04 142.624C76.752 142.045 76.176 141.66 75.552 141.708Z" fill="#2DBE61"/>
<path d="M52.752 133.418H63.168C63.744 133.418 64.32 133.321 64.848 133.032C65.184 132.839 65.232 132.646 64.752 132.646H54.336C53.76 132.646 53.184 132.791 52.704 133.032C52.272 133.225 52.272 133.418 52.752 133.418Z" fill="#2DBE61"/>
<path d="M75.648 164.121H42.96L43.92 164.748V147.588L42.528 148.504H75.216L74.256 147.878V165.037C74.256 166.049 76.656 165.808 76.656 164.748V147.588C76.656 147.155 76.032 146.962 75.696 146.962H42.96C42.384 146.962 41.52 147.203 41.52 147.878V165.037C41.52 165.471 42.144 165.663 42.48 165.663H75.168C75.648 165.663 76.416 165.519 76.56 164.94C76.704 164.362 76.08 164.121 75.648 164.121Z" fill="#2DBE61"/>
<path d="M52.944 156.216H63.36C63.936 156.216 64.608 155.975 64.752 155.349C64.8 154.818 64.416 154.288 63.888 154.24C63.84 154.24 63.84 154.24 63.792 154.24H53.376C52.8 154.24 52.128 154.481 51.984 155.108C51.936 155.638 52.32 156.168 52.848 156.216C52.896 156.216 52.896 156.216 52.944 156.216Z" fill="#2DBE61"/>
<path d="M75.7441 185.425H43.0561L44.3041 186.438V169.278L43.2001 170.098H75.8881L74.6401 169.086V186.245C74.6401 187.353 76.9921 187.691 76.9921 186.438V169.278C76.9921 168.7 76.2241 168.266 75.7441 168.266H43.0561C42.5281 168.266 41.9521 168.459 41.9521 169.086V186.245C41.9521 186.823 42.7201 187.257 43.2001 187.257H75.8881C76.3681 187.257 77.0401 187.064 76.9921 186.438C76.9441 185.811 76.2241 185.425 75.7441 185.425Z" fill="#2DBE61"/>
<path d="M53.5678 177.231H63.9838C64.3198 177.231 65.1838 177.087 65.1358 176.605C65.0878 176.123 64.2238 176.123 63.8878 176.123H53.4718C53.1358 176.123 52.2718 176.267 52.3198 176.749C52.3678 177.231 53.2798 177.231 53.5678 177.231Z" fill="#2DBE61"/>
<path d="M59.6639 52.8754H42.1919V58.7076H59.6639V52.8754Z" fill="#2DBE61"/>
<path d="M59.9041 58.9486H41.9521V52.6344H59.9041V58.9486ZM42.4321 58.4666H59.4241V53.1164H42.4321V58.4666Z" fill="#2DBE61"/>
<path d="M51.5039 61.8888H42.0479V64.0578H51.5039V61.8888Z" fill="#2DBE61"/>
<path d="M51.6961 64.2988H41.8081V61.6478H51.7441L51.6961 64.2988ZM42.2881 63.8168H51.2641V62.1298H42.2881V63.8168Z" fill="#2DBE61"/>
<path d="M100.368 66.5642H78.2397V70.9022H100.368V66.5642Z" fill="#2DBE61"/>
<path d="M100.608 71.1432H78V66.3232H100.608V71.1432ZM78.48 70.6612H100.128V66.8052H78.48V70.6612Z" fill="#2DBE61"/>
<path d="M100.416 73.2158H89.5679V75.7222H100.416V73.2158Z" fill="#2DBE61"/>
<path d="M100.608 75.9633H89.2798V72.9749H100.608V75.9633ZM89.8078 75.4813H100.176V73.4569H89.8078V75.4813Z" fill="#2DBE61"/>
<path d="M105.888 102.714C105.888 102.714 108.288 94.3273 109.152 94.3273H112.752V92.4957H117.504V94.3273H123.552V92.4957H128.64V94.3273H134.112L137.52 103.052L105.888 102.714Z" fill="#2DBE61"/>
<path d="M107.04 103.052C107.424 101.654 107.856 100.256 108.336 98.9063C108.672 97.9423 109.008 96.9783 109.392 96.0143C109.488 95.8215 109.536 95.6769 109.632 95.4841C109.68 95.3877 109.728 95.3395 109.776 95.2431C109.824 95.1467 109.92 95.0021 109.824 95.0985C109.728 95.1949 109.968 94.9539 109.968 94.9057C109.92 95.0985 109.44 95.1467 109.296 95.1949C109.152 95.2431 109.344 95.1949 109.488 95.1949H112.704C113.184 95.1949 113.952 94.9539 113.952 94.3273V92.5439L112.704 93.4115H117.456L116.304 92.3993V94.2309C116.352 94.8093 116.88 95.2431 117.456 95.2431H123.504C123.984 95.2431 124.752 95.0021 124.752 94.3755V92.5439L123.504 93.4115H128.592L127.44 92.3993V94.2309C127.488 94.8093 128.016 95.2431 128.592 95.2431H134.064L132.96 94.5201L136.368 103.244L137.568 102.136L126.816 102.039L109.824 101.847L105.936 101.798C105.408 101.798 104.736 102.039 104.688 102.666C104.64 103.293 105.312 103.63 105.84 103.678L116.592 103.775L133.584 103.967L137.472 104.016C138 104.016 138.96 103.63 138.672 102.907L135.264 94.2309C135.072 93.7971 134.64 93.5079 134.16 93.4597H128.64L129.792 94.4719V92.5439C129.744 91.9655 129.216 91.5317 128.64 91.5317H123.552C123.072 91.5317 122.304 91.7727 122.304 92.3993V94.2309L123.552 93.3633H117.504L118.656 94.3755V92.5439C118.608 91.9655 118.08 91.5317 117.504 91.5317H112.8C112.32 91.5317 111.552 91.7727 111.552 92.3993V94.2309L112.8 93.3633H109.776C109.248 93.2669 108.672 93.3633 108.192 93.6525C107.904 93.8935 107.616 94.2309 107.472 94.6165C106.464 96.4481 105.888 98.5689 105.312 100.545C105.12 101.172 104.928 101.798 104.784 102.377C104.64 102.907 104.976 103.437 105.456 103.534C105.504 103.534 105.504 103.534 105.552 103.534C105.984 103.726 106.848 103.63 107.04 103.052Z" fill="#2DBE61"/>
<path d="M140.208 77.843L139.536 75.192C139.536 75.192 131.136 72.5892 127.68 67.239C127.68 67.239 124.128 66.516 124.368 64.6844C124.608 62.8528 126.528 63.2384 126.528 63.2384C126.528 63.2384 127.536 61.9852 129.888 64.0578C129.888 64.0578 143.76 62.66 144.192 62.2744C144.624 61.8888 146.064 58.9004 148.752 57.5026C151.44 56.1048 152.784 58.081 151.584 59.6234C150.72 60.7802 149.904 61.937 149.184 63.142C149.184 63.142 152.016 67.0462 149.232 70.613L150.336 73.5532C150.336 73.4568 147.12 77.0718 140.208 77.843Z" fill="white"/>
<path d="M141.024 78.084L140.496 76.0596C140.304 75.2884 140.064 74.469 139.2 74.1798C138.048 73.746 136.944 73.3604 135.84 72.8302C133.824 71.9144 131.952 70.7094 130.272 69.2634C129.888 68.926 129.504 68.5404 129.168 68.1548C128.736 67.6728 128.448 67.1908 128.064 66.6606C127.68 66.1304 126.864 66.0822 126.192 65.8412C125.808 65.6966 125.472 65.5038 125.136 65.2628C124.992 65.1182 125.088 65.311 125.088 65.2146C125.088 65.1182 125.184 65.4556 125.184 65.4556C125.184 65.4556 125.136 65.5038 125.184 65.4074C125.232 65.2628 125.28 65.07 125.328 64.9254C125.52 64.588 125.856 64.347 126.288 64.347C126.432 64.347 126.576 64.347 126.72 64.347C126.96 64.347 126.624 64.2988 126.816 64.347C127.008 64.3952 127.2 64.347 127.296 64.2024C127.2 64.347 127.2 64.2506 127.344 64.2024C127.44 64.1542 127.536 64.106 127.68 64.0578C128.256 64.0096 128.832 64.1542 129.264 64.5398C129.648 64.829 129.984 65.2146 130.512 65.2146C130.752 65.2146 130.992 65.1664 131.184 65.1664C133.296 64.9736 135.456 64.7326 137.568 64.4916C139.68 64.2506 141.792 64.0578 143.904 63.6722C144.432 63.6722 144.912 63.4312 145.2 62.9974C145.92 61.8406 146.784 60.732 147.792 59.768C148.56 58.9968 149.472 58.4666 150.48 58.2256C150.528 58.2256 151.536 58.1774 151.488 58.322C151.488 58.322 151.296 57.9846 151.248 57.9846C151.152 57.8882 151.248 57.9364 151.248 58.081C151.104 58.4666 150.912 58.8522 150.624 59.1414C150.24 59.6234 149.904 60.1054 149.568 60.6356C149.232 61.1658 148.8 61.7442 148.464 62.2744C148.176 62.7564 148.608 63.4312 148.848 63.7686C148.416 63.1902 148.896 63.9132 148.992 64.0578C149.136 64.2988 148.992 64.0096 149.04 64.106L149.184 64.3952C149.28 64.588 149.376 64.829 149.424 64.9254C149.856 66.1304 149.76 67.48 149.184 68.685C148.992 69.0706 148.704 69.3598 148.512 69.7454C148.416 70.0828 148.416 70.4202 148.56 70.7094C148.656 70.9986 148.752 71.2878 148.896 71.5288L149.664 73.6014L149.616 72.6374C149.52 72.782 149.76 72.4928 149.568 72.6856C149.376 72.8784 149.28 72.9748 149.088 73.1194C148.512 73.6014 147.888 74.0352 147.264 74.4208C144.96 75.7704 142.416 76.5898 139.776 76.8308C138.816 76.9272 139.872 79.0962 140.688 78.9998C143.424 78.7106 146.112 77.8912 148.512 76.4934C149.472 75.9632 150.336 75.2884 151.104 74.469C151.296 74.228 151.104 73.746 151.056 73.505L149.952 70.5648L150 71.5288C152.064 68.8296 151.44 65.2146 149.568 62.5636L149.952 64.0578C150.72 62.8046 151.584 61.6478 152.4 60.3946C153.312 59.045 152.688 57.1652 151.392 56.3458C149.904 55.3818 148.128 56.2976 146.928 57.2616C145.776 58.2256 144.768 59.3342 144 60.5874C143.904 60.7802 143.76 60.9248 143.664 61.1176C143.616 61.1658 143.568 61.214 143.52 61.3104L143.472 61.3586C143.472 61.3586 143.664 61.3104 143.52 61.3586L143.184 61.455C142.464 61.5996 141.696 61.696 140.928 61.7924C138.624 62.0816 136.32 62.3708 134.016 62.6118C132.48 62.8046 130.944 62.9492 129.408 63.0938L130.032 63.383C129.072 62.5154 126.912 61.0694 125.76 62.4672L126.24 62.3226C125.616 62.178 124.992 62.2744 124.464 62.5636C123.456 63.1902 123.36 64.588 123.792 65.552C124.464 67.1908 126.288 68.0584 127.968 68.3958L127.152 67.6728C129.792 71.7216 134.256 74.2762 138.672 75.9632C139.056 76.1078 139.44 76.2524 139.824 76.397L138.768 75.0956L139.44 77.7466C139.584 78.2286 139.968 78.9034 140.496 79.048C141.024 79.1926 141.12 78.4696 141.024 78.084Z" fill="#000005"/>
<path d="M135.888 67.9619C135.888 67.9619 131.76 66.0821 129.888 64.0577L135.888 67.9619Z" fill="white"/>
<path d="M136.224 67.2389C135.456 66.9015 134.736 66.4677 133.968 66.0821L133.728 65.9375L133.632 65.8893L133.68 65.9375C133.536 65.8411 133.392 65.7447 133.2 65.6483C132.864 65.4555 132.576 65.2145 132.24 65.0217C131.904 64.8289 131.616 64.5879 131.328 64.3469C131.28 64.2987 130.992 64.1541 131.28 64.2987C131.232 64.2505 131.184 64.2023 131.088 64.1541C130.944 64.0095 130.8 63.8649 130.656 63.7203C130.272 63.2865 129.648 63.0937 129.024 63.2865C128.496 63.5275 128.592 64.1059 128.928 64.4915C130.128 65.6965 131.52 66.7087 133.056 67.5281C133.824 67.9619 134.592 68.3957 135.408 68.7813C135.84 68.9741 136.608 69.0705 136.848 68.5403C137.088 68.0101 136.656 67.4317 136.224 67.2389Z" fill="#000005"/>
<path d="M126.528 63.2384C126.528 63.2384 125.712 64.2506 127.68 67.239L126.528 63.2384Z" fill="white"/>
<path d="M125.712 62.3226C125.568 62.5154 125.52 62.7564 125.52 62.9492C125.52 63.6722 125.664 64.3952 126 65.07C126.288 65.7448 126.624 66.3714 127.056 66.998C127.248 67.239 127.44 67.48 127.632 67.721C127.824 67.9138 128.016 68.0584 128.208 68.1548C128.688 68.3476 128.4 67.6728 128.304 67.48C128.208 67.2872 128.112 67.1908 128.016 67.0462C127.92 66.9016 127.824 66.757 127.776 66.6124L127.68 66.4678C127.632 66.3714 127.584 66.2268 127.488 66.0822L127.44 65.9376C127.44 65.9376 127.344 65.6966 127.392 65.8412C127.44 65.9858 127.392 65.793 127.344 65.7448L127.296 65.6002C127.248 65.4556 127.2 65.2628 127.152 65.07C127.152 65.0218 127.104 64.9254 127.104 64.8772C127.104 65.0218 127.104 64.9736 127.104 64.9254C127.104 64.8772 127.104 64.8772 127.104 64.829C127.104 64.7326 127.104 64.6362 127.104 64.5398C127.104 64.3952 127.152 64.2506 127.2 64.1542L127.152 64.2506C127.152 64.2024 127.2 64.2024 127.2 64.1542C127.296 64.0578 127.2 63.8168 127.152 63.7204C127.008 63.4794 126.864 63.2384 126.672 62.9974C126.48 62.7564 126.288 62.5636 126.048 62.419C126.096 62.3708 125.808 62.2262 125.712 62.3226Z" fill="#000005"/>
<path d="M136.992 65.5038C136.992 65.5038 131.184 64.6362 130.272 64.2024L136.992 65.5038Z" fill="white"/>
<path d="M137.52 64.8772C136.848 64.7808 136.224 64.6844 135.552 64.588C134.88 64.4916 134.352 64.3952 133.776 64.2988L133.536 64.2506C133.344 64.2024 133.68 64.2988 133.536 64.2506L133.104 64.1542L132.336 64.0096C132.096 63.9614 131.856 63.9132 131.616 63.8168L131.328 63.7204L131.232 63.6722C131.136 63.6722 131.472 63.7686 131.328 63.7204C130.8 63.5276 130.176 63.5276 129.648 63.8168C129.36 63.9614 128.88 64.4434 129.36 64.6844C130.272 65.0218 131.232 65.2628 132.192 65.3592C133.392 65.6002 134.592 65.793 135.792 65.9858L136.56 66.0822C137.136 66.1786 137.712 65.9858 138.144 65.552C138.432 65.1664 137.856 64.9254 137.52 64.8772Z" fill="#000005"/>
<path d="M139.392 68.7332C139.584 68.685 139.728 68.5886 139.92 68.5404L140.16 68.4922L140.304 68.444C140.016 68.5404 140.208 68.4922 140.256 68.444C140.496 68.3958 140.688 68.3958 140.928 68.3958H141.264H141.456C141.216 68.3476 141.648 68.3958 141.456 68.3958C141.6 68.3958 141.744 68.444 141.84 68.4922L142.032 68.5404C141.744 68.444 142.224 68.5886 142.032 68.5404L142.224 68.6368C142.32 68.685 142.512 68.8296 142.224 68.5886C142.32 68.685 142.464 68.7814 142.608 68.8778C142.272 68.6368 142.512 68.7814 142.608 68.8778L142.752 69.0706C142.56 68.7814 142.896 69.2152 142.752 69.0706C142.8 69.167 142.848 69.2152 142.896 69.3116C143.04 69.6008 143.28 69.7936 143.568 69.9382C143.808 70.0828 144.048 70.0828 144.288 70.0346C144.816 69.7936 144.72 69.167 144.48 68.7332C143.808 67.5282 142.656 66.6606 141.312 66.4196C140.4 66.275 139.488 66.3232 138.624 66.5642C138.48 66.6124 138.288 66.6606 138.144 66.7088C137.04 67.1908 138.384 69.1188 139.344 68.7332H139.392Z" fill="#000005"/>
<path d="M140.208 77.843C140.208 77.843 143.568 98.4726 150.96 101.557C158.352 104.642 180.144 91.0016 180.144 91.0016L180.624 72.4446L156.912 84.832L150.384 73.505L140.208 77.843Z" fill="white"/>
<path d="M139.104 77.6984C139.872 82.5184 141.12 87.1938 142.896 91.7728C144.048 94.7612 145.488 97.9424 147.84 100.256C148.848 101.316 150.096 102.088 151.488 102.521C152.832 102.859 154.176 102.955 155.52 102.762C158.832 102.425 162.048 101.22 165.12 99.9668C168.288 98.6172 171.408 97.123 174.48 95.4842C176.544 94.3756 178.512 93.267 180.528 92.062C180.864 91.8692 181.248 91.7246 181.296 91.2908C181.392 90.616 181.344 89.9412 181.344 89.2664L181.728 73.2158V72.782C181.728 72.0108 180.528 71.2878 179.856 71.6252L171.792 75.8186L159.024 82.4702L156.096 84.0126L157.824 84.7356L152.16 74.7582L151.344 73.3604C151.056 72.8302 150.192 72.3964 149.616 72.6374L140.736 76.4452L139.488 76.9754C138.336 77.5056 140.112 78.9998 140.976 78.6142L149.856 74.8064L151.104 74.2762L149.328 73.5532L155.088 83.4824L155.904 84.8802C156.192 85.3622 157.104 85.8924 157.68 85.6032L165.744 81.4098L178.512 74.7582L181.44 73.2158L179.568 72.059L179.184 88.3024L179.136 90.616L179.328 90.2304C177.12 91.58 175.104 92.7368 172.8 93.9418C168.48 96.2554 164.016 98.4244 159.312 99.9186C157.392 100.593 155.328 100.979 153.312 101.075H153.168C153.072 101.075 152.976 101.075 152.88 101.075L152.256 101.027L151.968 100.979C151.776 100.931 152.16 101.027 151.92 100.979C151.728 100.931 151.536 100.883 151.344 100.786C151.152 100.69 151.584 100.931 151.296 100.786L151.008 100.642L150.768 100.497C150.48 100.352 150.816 100.545 150.672 100.449C150.528 100.352 150.288 100.208 150.144 100.063L149.904 99.8704L149.952 99.9186L149.76 99.7258C148.272 98.2798 147.216 96.4 146.256 94.472C145.248 92.303 144.432 90.0376 143.76 87.724C143.136 85.6996 142.608 83.5788 142.176 81.5062C141.936 80.3976 141.744 79.2408 141.504 78.1322C141.504 78.084 141.504 78.0358 141.456 77.9876C141.168 77.0236 138.912 76.4452 139.104 77.6984Z" fill="#000005"/>
<path d="M148.896 190.004L144.624 190.968C144.624 190.968 133.392 196.174 134.88 198.343C136.368 200.512 139.728 201.813 148.128 200.078C156.528 198.343 162.384 193.764 158.448 188.317L148.896 190.004Z" fill="#000005"/>
<path d="M148.8 188.992L144.816 189.86C144.096 190.053 143.424 190.342 142.752 190.727C141.264 191.45 139.776 192.27 138.336 193.137C136.896 193.909 135.6 194.921 134.448 196.078C134.016 196.511 133.68 197.09 133.584 197.765C133.536 198.439 133.824 199.114 134.304 199.548C135.408 200.657 136.8 201.428 138.336 201.717C140.592 202.199 142.992 202.006 145.248 201.717C148.272 201.331 151.2 200.56 154.032 199.355C156.432 198.295 158.88 196.752 160.176 194.391C161.376 192.125 160.8 189.667 159.36 187.691C159.072 187.402 158.688 187.257 158.256 187.305L148.8 188.992C148.224 188.992 147.744 189.474 147.744 190.053C147.744 190.631 148.224 191.113 148.8 191.113C148.896 191.113 148.992 191.113 149.04 191.065L158.592 189.33L157.488 188.944C158.016 189.667 158.352 190.486 158.496 191.354C158.592 192.077 158.448 192.8 158.112 193.475C157.344 195.017 155.616 196.222 154.032 196.993C151.632 198.102 149.088 198.921 146.496 199.307C144.24 199.693 141.936 199.982 139.68 199.693L139.104 199.596C139.008 199.596 138.96 199.548 138.864 199.548C139.056 199.596 138.864 199.548 138.816 199.548C138.48 199.452 138.144 199.355 137.808 199.211C137.712 199.162 137.328 198.97 137.568 199.114C137.424 199.066 137.328 198.97 137.184 198.921C137.04 198.873 136.944 198.777 136.848 198.68L136.656 198.536C136.464 198.391 136.8 198.68 136.656 198.536C136.464 198.343 136.32 198.198 136.128 198.006C136.08 197.957 136.08 197.909 136.032 197.909C135.84 197.716 136.08 197.861 136.032 197.909L135.984 197.813C135.888 197.668 136.08 198.102 135.984 197.861C135.936 198.15 135.984 197.765 135.984 197.861C136.032 197.668 135.84 198.054 135.984 197.813C136.032 197.765 136.176 197.475 136.08 197.62C135.984 197.765 136.224 197.427 136.272 197.379C136.32 197.331 136.464 197.186 136.56 197.09C136.656 196.993 136.944 196.752 136.752 196.897C137.04 196.656 137.328 196.415 137.616 196.222C138.24 195.74 138.912 195.306 139.584 194.873C140.256 194.439 140.928 194.101 141.6 193.716L142.08 193.475L142.176 193.427L142.368 193.33L143.328 192.848C143.808 192.607 144.288 192.366 144.768 192.125C144.864 192.077 144.96 192.029 145.056 191.981C144.96 192.077 144.624 192.077 145.008 191.981L149.04 191.113C149.664 191.065 150.096 190.535 150.096 189.908C150 189.281 149.424 188.896 148.8 188.992Z" fill="#000005"/>
<path d="M151.008 179.738C151.008 179.738 149.856 185.956 149.52 187.257C149.184 188.558 139.584 194.15 140.592 194.921C141.6 195.692 143.568 196.752 150.816 194.198C158.064 191.643 158.112 190.438 158.352 188.848C158.592 187.257 158.928 178.34 158.928 178.34L151.008 179.738Z" fill="white"/>
<path d="M150.048 179.256C149.712 180.895 149.424 182.533 149.088 184.172C148.896 185.04 148.704 185.859 148.56 186.727C148.512 186.92 148.608 186.63 148.608 186.63C148.704 186.582 148.608 186.63 148.56 186.679C148.512 186.727 148.464 186.775 148.416 186.823C148.176 187.064 147.936 187.257 147.696 187.498C146.208 188.751 144.576 189.812 142.944 190.968C142.176 191.499 141.408 192.077 140.688 192.704C140.16 193.089 139.776 193.619 139.536 194.198C139.2 195.74 141.12 196.608 142.32 196.849C144.576 197.283 147.024 196.608 149.184 195.981C150.912 195.451 152.64 194.824 154.32 194.101C155.328 193.716 156.336 193.186 157.248 192.559C158.304 191.884 158.976 190.776 159.168 189.571C159.408 187.884 159.504 186.148 159.552 184.461C159.648 182.582 159.744 180.75 159.792 178.87C159.792 178.774 159.792 178.629 159.792 178.533C159.792 177.954 159.216 177.087 158.544 177.183L150.672 178.581C149.424 178.822 150.144 181.087 151.248 180.895L159.168 179.497L157.92 178.147C157.824 181.328 157.728 184.702 157.44 187.739C157.392 188.173 157.344 188.655 157.248 189.089C157.248 189.137 157.248 189.185 157.2 189.233C157.152 189.426 157.296 188.992 157.2 189.185C157.152 189.281 157.152 189.378 157.104 189.474C157.056 189.571 157.008 189.667 156.96 189.763C157.104 189.522 156.864 189.86 156.816 189.956C156.336 190.438 155.808 190.872 155.136 191.161C153.888 191.788 152.592 192.366 151.296 192.8C148.752 193.764 145.968 194.728 143.184 194.728C142.896 194.728 142.608 194.728 142.32 194.632C142.176 194.632 142.032 194.583 141.888 194.535L141.696 194.487C141.408 194.439 141.792 194.535 141.648 194.487C141.504 194.439 141.264 194.294 141.072 194.198C140.784 194.053 141.216 194.342 141.024 194.198C140.976 194.15 140.928 194.15 140.928 194.15C141.168 194.391 141.312 194.728 141.36 195.065C141.312 195.21 141.312 195.306 141.312 195.451C141.312 195.403 141.36 195.355 141.36 195.355C141.36 195.499 141.216 195.499 141.312 195.403C141.36 195.355 141.36 195.306 141.408 195.258C141.6 195.017 141.84 194.824 142.128 194.583C142.752 194.053 143.376 193.571 144 193.137C145.584 191.981 147.264 190.872 148.8 189.619C149.376 189.233 149.856 188.751 150.24 188.173C150.528 187.353 150.72 186.486 150.816 185.666C151.2 183.883 151.536 182.1 151.824 180.316C151.92 179.69 151.632 179.111 151.056 178.774C150.72 178.533 150.24 178.677 150 179.015C150.144 179.111 150.096 179.159 150.048 179.256Z" fill="#000005"/>
<path d="M162.72 115.198C162.72 115.198 163.68 79.8674 177.12 71.7698C190.56 63.6722 201.264 86.2298 201.264 113.656C201.216 113.656 186.816 124.356 162.72 115.198Z" fill="white"/>
<path d="M163.872 115.439C163.968 112.017 164.304 108.595 164.688 105.221C165.504 98.4244 166.8 91.58 169.152 85.1694C171.168 79.7228 174.384 73.2158 180.288 71.2396C180.912 70.9986 181.536 70.9022 182.208 70.8058L182.592 70.7576H182.928C183.072 70.7576 183.264 70.7576 183.408 70.8058L183.696 70.854C183.936 70.9022 183.504 70.8058 183.744 70.854C183.984 70.9022 184.368 70.9986 184.704 71.0468C184.944 71.095 184.704 71.0468 184.656 71.0468L184.944 71.1432L185.472 71.336L185.904 71.5288C186.192 71.6734 185.712 71.4324 186 71.577L186.192 71.6734C186.528 71.8662 186.864 72.059 187.152 72.2518C188.352 73.1194 189.456 74.1798 190.368 75.3366C191.52 76.7826 192.528 78.3732 193.344 80.0602C195.36 84.109 196.848 88.447 197.808 92.8814C199.008 98.1834 199.68 103.63 199.92 109.077C199.968 110.523 200.016 111.92 200.016 113.366L200.256 113.077C199.776 113.415 199.248 113.752 198.672 114.041C198.384 114.186 198.096 114.33 197.808 114.523L197.328 114.764L197.04 114.909L196.896 114.957C196.032 115.343 195.12 115.728 194.208 116.017C188.688 117.897 182.88 118.572 177.072 117.945C172.272 117.463 167.568 116.307 163.104 114.571C162.672 114.427 161.856 114.282 161.568 114.716C161.28 115.15 161.856 115.584 162.192 115.728C169.296 118.427 176.88 119.922 184.512 119.488C189.168 119.247 193.776 118.186 198.096 116.355C199.248 115.873 200.352 115.294 201.408 114.62C201.648 114.475 201.84 114.379 202.032 114.186C202.176 114.089 202.272 113.993 202.32 113.848C202.368 113.607 202.368 113.366 202.32 113.077C202.32 112.836 202.32 112.595 202.32 112.354C202.32 111.776 202.32 111.197 202.272 110.619C202.032 103.003 201.072 95.3878 198.864 88.1096C197.232 82.7594 194.88 77.1682 190.848 73.1676C187.632 69.9864 183.168 68.3958 178.752 69.8418C174.528 71.2878 171.552 74.7582 169.44 78.566C167.04 82.9522 165.504 87.8204 164.4 92.6404C163.344 97.2194 162.576 101.798 162.096 106.474C161.808 109.125 161.616 111.776 161.472 114.427C161.472 114.571 161.472 114.668 161.472 114.812C161.472 115.343 162 115.632 162.48 115.776C162.864 115.921 163.872 115.969 163.872 115.439Z" fill="#000005"/>
<path d="M171.36 77.0718C168.336 78.566 174.192 72.2518 174.192 72.2518C174.192 72.2518 168.624 76.9754 162.528 65.6966C156.432 54.4178 161.856 35.7162 171.888 34.945C181.92 34.1738 188.592 35.4752 193.248 47.1396C197.904 58.804 191.184 68.7332 191.184 68.7332C191.184 68.7332 204.768 80.0602 198.336 86.037C198.384 85.9888 186.96 69.2152 171.36 77.0718Z" fill="#000005"/>
<path d="M170.64 76.8308C170.544 76.879 170.496 76.879 170.4 76.9272C170.544 76.8308 170.496 76.879 170.64 76.8308C170.976 76.8308 171.312 76.8308 171.6 76.879C171.648 76.7344 171.696 76.5898 171.744 76.4452C172.08 75.8668 172.464 75.2884 172.944 74.7582C173.664 73.8906 174.384 73.023 175.2 72.1554C175.536 71.7698 174.912 71.6734 174.672 71.6734C174.096 71.6734 173.568 71.8662 173.088 72.2036C172.992 72.3 173.136 72.1554 173.184 72.1072C173.136 72.1554 173.088 72.2036 172.992 72.2518L172.752 72.3964C172.56 72.4928 172.944 72.3 172.8 72.3964L172.56 72.4928C172.224 72.6374 172.464 72.541 172.56 72.4928L172.32 72.5892C172.032 72.6856 172.464 72.5892 172.32 72.5892L172.032 72.6374C172.416 72.541 172.08 72.6374 171.984 72.6374H171.792C171.792 72.6374 172.032 72.6374 171.84 72.6374H171.504C171.36 72.6374 171.744 72.6856 171.504 72.6374C171.408 72.6374 171.36 72.6374 171.264 72.5892C170.064 72.3482 168.912 71.818 167.952 70.9504C166.272 69.4562 164.88 67.6728 163.872 65.6966C160.224 59.1896 160.272 50.8028 163.008 43.9584C164.16 41.0664 165.888 38.1744 168.528 36.391C168.768 36.1982 169.008 36.0536 169.296 35.909C169.44 35.8126 169.584 35.7644 169.776 35.668L170.112 35.5234L170.592 35.3788C170.784 35.3306 170.304 35.427 170.64 35.3788L170.88 35.3306L171.12 35.2824C170.88 35.3306 171.12 35.2824 171.216 35.2824L171.888 35.2342C173.664 35.0896 175.392 35.0414 177.168 35.0896C180.192 35.2342 183.168 35.9572 185.664 37.7888C188.784 40.1024 190.752 43.621 192.144 47.1878C194.832 54.1286 194.16 61.937 190.32 68.3476C190.272 68.444 190.176 68.5886 190.128 68.685C190.08 68.7814 190.128 68.8778 190.176 68.926C191.664 70.1792 193.008 71.5288 194.304 73.023C196.368 75.3848 198.576 78.2768 198.96 81.458C199.2 83.0968 198.624 84.7838 197.424 85.8924L199.584 85.5068C198.144 83.4824 196.464 81.6508 194.544 80.1084C190.8 76.9272 186.24 74.6136 181.296 74.3726C177.552 74.3726 173.952 75.1438 170.64 76.8308C170.4 76.9754 169.92 77.2646 170.4 77.5056C170.88 77.7466 171.648 77.5056 172.032 77.3128C174.432 76.0596 177.12 75.433 179.856 75.4812C182.256 75.6258 184.56 76.2524 186.72 77.3128C190.176 79.048 193.296 81.5062 195.792 84.4946C196.32 85.1212 196.848 85.7478 197.28 86.4226C197.424 86.6636 198.144 86.519 198.336 86.519C198.768 86.4708 199.152 86.278 199.44 86.037C200.592 84.9766 201.264 83.4824 201.264 81.8918C201.216 80.3012 200.736 78.7588 199.968 77.361C198.48 74.5172 196.272 72.0108 193.968 69.7936C193.44 69.2634 192.912 68.7814 192.336 68.2994L192.384 68.5404C193.536 66.757 194.4 64.829 194.976 62.8046C196.368 58.3702 196.464 53.5984 195.264 49.1158C194.544 46.7058 193.536 44.3922 192.24 42.2232C191.28 40.6326 190.128 39.1866 188.736 37.9334C186.192 35.7162 182.928 34.6558 179.616 34.3666C177.744 34.222 175.824 34.1738 173.904 34.3184C171.984 34.4148 170.208 34.6558 168.432 35.427C165.36 36.8248 163.104 39.524 161.616 42.5124C159.936 45.9828 158.976 49.7906 158.832 53.6466C158.592 57.599 159.312 61.5514 160.992 65.1664C162 67.3354 163.344 69.3116 164.976 71.0468C166.032 72.2036 167.424 73.0712 168.912 73.505C170.976 74.0352 173.136 73.6496 174.912 72.4928C175.056 72.3964 175.152 72.3 175.296 72.2036L173.184 72.2518C172.176 73.3604 171.216 74.469 170.304 75.674C170.016 76.0596 169.296 76.8308 169.392 77.4092C169.536 78.3732 171.648 77.5056 172.08 77.3128C172.368 77.1682 172.8 76.879 172.368 76.638C171.936 76.397 171.072 76.638 170.64 76.8308Z" fill="#000005"/>
<path d="M183.312 63.9132C183.312 63.9132 181.776 70.3238 173.424 71.2878C173.424 71.2878 168.048 70.613 164.496 67.3836C159.264 62.66 164.88 46.754 164.88 46.754C167.088 42.3678 172.176 43.5728 172.176 43.5728C179.52 45.8864 182.544 52.8754 182.544 52.8754C182.544 52.8754 184.08 59.286 183.312 63.9132Z" fill="white"/>
<path d="M182.256 63.3829C182.16 63.7203 182.064 64.0577 181.92 64.3469C181.536 65.2145 181.008 66.0339 180.384 66.7569C179.472 67.7691 178.416 68.5885 177.216 69.1669C176.448 69.5525 175.632 69.8417 174.768 70.0345C174.288 70.1309 173.856 70.2273 173.376 70.3237C173.232 70.3719 173.088 70.3719 172.944 70.3719C171.888 70.2755 170.832 69.9863 169.824 69.6007C168.144 69.0705 166.608 68.2511 165.216 67.0943C165.12 66.9979 165.024 66.9015 164.88 66.8051C164.688 66.6123 164.88 66.8533 164.736 66.6605C164.592 66.4677 164.448 66.2749 164.352 66.0821C164.064 65.5519 163.872 65.0217 163.728 64.4433C163.392 63.0937 163.296 61.7441 163.344 60.3463C163.44 57.4543 163.872 54.6105 164.64 51.8149C164.88 50.7545 165.168 49.7423 165.504 48.6819C165.648 48.1999 165.792 47.7661 165.936 47.2841C166.56 46.0309 167.712 45.0669 169.056 44.5849C170.016 44.2475 171.072 44.1511 172.08 44.2957C172.224 44.2957 172.32 44.3439 172.464 44.3439C172.848 44.3921 172.032 44.1993 172.56 44.3921C173.424 44.7295 174.288 45.1151 175.104 45.5489C176.448 46.3201 177.696 47.3323 178.752 48.4891C179.568 49.4049 180.288 50.3689 180.912 51.3811L181.008 51.5257L181.152 51.7667L181.392 52.2487C181.44 52.3451 181.536 52.6343 181.632 52.7307C181.584 52.6825 181.536 52.3933 181.584 52.6343C181.632 52.8753 181.632 52.9717 181.68 53.1163C181.824 53.6947 181.92 54.2731 182.016 54.8515C182.352 56.6831 182.496 58.5147 182.544 60.3463C182.496 61.4067 182.4 62.4189 182.256 63.3829C182.112 64.2505 184.176 65.4555 184.368 64.4915C184.944 60.9247 184.416 57.1169 183.696 53.6465C183.6 53.2127 183.456 52.7789 183.216 52.3933C182.688 51.3811 182.064 50.4171 181.344 49.5013C179.04 46.4647 175.824 43.9101 172.128 42.8015C169.872 42.1749 167.424 42.6087 165.504 44.0547C164.688 44.7295 164.016 45.5971 163.68 46.6093C163.44 47.4287 163.2 48.1999 162.96 49.0193C162.144 51.8631 161.568 54.7551 161.328 57.6953C161.088 60.6355 161.136 63.8649 162.768 66.4195C163.776 68.0101 165.504 69.1187 167.136 69.9863C168.72 70.8057 170.448 71.4323 172.176 71.8179C172.656 71.9143 173.184 72.0589 173.664 72.1071C174.336 72.1553 175.008 72.0589 175.68 71.8661C177.408 71.5287 179.088 70.8057 180.528 69.7453C182.256 68.4921 183.552 66.7569 184.224 64.7325C184.272 64.6361 184.272 64.5397 184.32 64.3951C184.56 63.6239 182.496 62.3707 182.256 63.3829Z" fill="#000005"/>
<path d="M179.52 59.9126C179.52 59.9126 180.672 63.4312 177.216 63.383L179.52 59.9126Z" fill="white"/>
<path d="M178.368 60.1535C178.416 60.2981 178.464 60.3945 178.464 60.5391L178.416 60.3463C178.512 60.8283 178.512 61.3103 178.464 61.7923L178.512 61.5995C178.464 61.8405 178.368 62.1297 178.224 62.3225L178.32 62.1297C178.224 62.2743 178.128 62.3708 178.032 62.4672C177.936 62.5636 178.224 62.3225 178.128 62.3707L178.08 62.4189L177.984 62.4672L177.888 62.5153C177.696 62.6117 178.128 62.419 177.984 62.4672C177.84 62.5154 177.792 62.5153 177.744 62.5635C177.552 62.6117 177.984 62.5153 177.84 62.5153L177.648 62.5635L177.504 62.6117H177.408H177.6C177.456 62.6117 177.312 62.6117 177.168 62.6117C176.88 62.6117 176.592 62.7081 176.304 62.8527C176.112 62.9973 175.968 63.1902 175.968 63.4312C176.016 64.0096 176.688 64.2505 177.168 64.2505C178.512 64.2505 179.952 63.8167 180.576 62.5635C180.864 61.8887 180.96 61.1175 180.768 60.3945C180.72 60.1535 180.672 59.9607 180.624 59.7197C180.528 59.4787 180.336 59.3341 180.096 59.2377C179.808 59.1413 179.472 59.0931 179.184 59.1413C178.704 59.2377 178.176 59.5751 178.368 60.1535Z" fill="#000005"/>
<path d="M167.808 55.3336C166.368 56.635 164.736 57.7436 162.96 58.563C157.056 61.5032 156.96 63.865 159.264 64.5398C161.568 65.2146 169.776 61.696 169.776 61.696" fill="white"/>
<path d="M166.848 54.8998L166.752 54.9962C166.704 55.0444 166.704 55.0444 166.656 55.0926C166.56 55.189 166.848 54.948 166.656 55.0926C166.272 55.3818 165.936 55.671 165.552 55.9602C164.256 56.8278 162.912 57.599 161.52 58.2738C160.224 58.9486 158.976 59.768 157.92 60.7802C157.296 61.3586 156.864 62.1298 156.672 62.9492C156.528 64.6844 158.448 65.5038 159.888 65.4556C161.952 65.4074 164.064 64.6844 165.984 64.0096C167.424 63.5276 168.816 62.9974 170.208 62.419C170.688 62.2262 171.12 61.696 170.832 61.1658C170.544 60.6356 169.728 60.6356 169.248 60.8284C168.24 61.2622 167.232 61.6478 166.176 62.0334C165.696 62.178 165.264 62.3708 164.784 62.5154L164.064 62.7564L163.728 62.8528C163.92 62.8046 163.584 62.901 163.536 62.901C162.624 63.1902 161.712 63.383 160.8 63.5758L160.512 63.624C160.272 63.6722 160.56 63.624 160.464 63.624C160.272 63.624 160.128 63.624 159.936 63.624C159.888 63.624 159.6 63.5758 159.792 63.624C159.984 63.6722 159.744 63.624 159.744 63.624L159.552 63.5758C159.456 63.5276 159.648 63.624 159.648 63.624L159.504 63.5758C159.456 63.5276 159.36 63.5276 159.264 63.4794C159.072 63.4312 159.312 63.5276 159.264 63.4794C159.168 63.383 159.072 63.3348 158.976 63.2384C159.168 63.4312 158.976 63.1902 158.928 63.0938C158.928 63.0456 158.928 62.9492 158.88 62.901C158.832 63.0456 158.88 62.7564 158.88 62.901C158.88 62.8528 158.88 62.8046 158.88 62.7082C158.88 62.5154 158.88 62.66 158.88 62.66C158.928 62.5636 158.928 62.5154 158.976 62.419C159.024 62.3708 159.072 62.2744 159.072 62.2262C159.168 62.0816 158.976 62.3226 159.12 62.178C159.264 61.9852 159.408 61.8406 159.552 61.6478C160.416 60.8766 161.376 60.2018 162.384 59.6716C164.544 58.5148 166.752 57.4062 168.528 55.7192C168.816 55.43 168.816 54.948 168.528 54.6588C168.48 54.5624 168.384 54.5142 168.288 54.5142C167.712 54.2732 167.04 54.4178 166.608 54.8516L166.848 54.8998Z" fill="#000005"/>
<path d="M174.288 53.2128C173.808 53.261 173.424 53.6948 173.472 54.225C173.472 54.2732 173.472 54.3214 173.52 54.3696C173.76 55.3336 174.96 55.0444 175.008 54.1286C175.104 53.6948 174.816 53.3092 174.432 53.2128C174.336 53.2128 174.336 53.2128 174.288 53.2128Z" fill="#000005"/>
<path d="M167.184 53.02C166.704 53.0682 166.32 53.502 166.368 54.0322C166.368 54.0804 166.368 54.1286 166.416 54.1768C166.656 55.1408 167.856 54.8516 167.904 53.9358C168 53.502 167.712 53.1164 167.28 53.02C167.28 53.02 167.232 53.02 167.184 53.02Z" fill="#000005"/>
<path d="M170.016 73.6978C170.016 73.6978 174.384 67.6247 175.344 68.1067C176.304 68.5887 177.84 69.9865 177.888 70.854C177.936 71.7216 182.88 71.6735 186.192 68.2031C190.176 64.0097 189.744 60.3947 187.584 59.4307C185.664 58.5631 185.76 57.8883 185.952 57.2617C186.144 56.6351 189.792 53.4056 190.944 54.1768C192.096 54.948 197.616 66.034 187.392 72.6374C177.168 79.2408 169.392 74.5172 170.016 73.6978Z" fill="#2DBE61"/>
<path d="M170.784 74.6136C171.888 72.9748 173.136 71.4806 174.528 70.0828C174.816 69.7454 175.2 69.4562 175.584 69.2634C175.68 69.2152 175.68 69.167 175.632 69.2152C175.68 69.1188 175.68 69.2152 175.632 69.2152C175.584 69.2152 175.632 69.2152 175.68 69.2634C175.728 69.3116 175.824 69.3598 175.92 69.408C176.112 69.5526 176.304 69.6972 176.496 69.8418C176.736 70.0346 177.024 70.4202 177.168 70.5648C177.408 70.7576 176.928 70.5166 177.12 70.4202C177.072 70.4684 177.264 71.0468 177.312 71.0468C177.552 71.6734 178.08 72.1554 178.752 72.3482C179.952 72.6856 181.392 72.3482 182.544 71.9626C184.368 71.3842 185.952 70.3238 187.248 68.8778C189.504 66.4196 191.424 62.5154 188.928 59.527C188.4 58.9968 187.824 58.5148 187.104 58.2256C186.912 58.1292 186.768 58.0328 186.576 57.8882C186.384 57.7436 186.576 57.84 186.624 58.0328C186.672 58.2256 186.672 58.1774 186.72 58.2738C186.768 58.2738 186.768 58.3702 186.72 58.2738C186.672 58.2738 186.72 58.2738 186.72 58.2256C186.72 58.1774 186.72 58.1292 186.768 58.0328C186.816 57.8882 186.672 58.1292 186.768 57.9846C186.816 57.8882 186.864 57.84 186.912 57.7918C187.056 57.599 187.2 57.4062 187.392 57.2616C187.872 56.7796 188.448 56.3458 188.976 55.9602C189.456 55.5746 189.984 55.3336 190.608 55.1408C190.704 55.1408 190.8 55.1408 190.896 55.0926C190.992 55.0444 190.992 55.1408 190.896 55.0444C190.992 55.1408 190.608 54.7552 190.752 54.948C190.8 54.9962 190.8 55.0444 190.848 55.0926C190.992 55.189 190.656 54.8034 190.8 55.0444C190.896 55.189 190.992 55.2854 191.04 55.43L191.184 55.671C191.328 55.9602 191.136 55.5264 191.184 55.7192C191.232 55.912 191.376 56.153 191.472 56.3458C191.568 56.5386 191.664 56.7314 191.712 56.9724C191.712 57.0206 191.856 57.358 191.808 57.2134C191.76 57.0688 191.904 57.4544 191.904 57.5508C192.048 58.1292 192.192 58.6594 192.336 59.2378C192.576 60.4428 192.624 61.6478 192.48 62.901C192.096 66.0822 190.416 68.9742 187.824 70.9022C184.56 73.4086 180.432 75.0474 176.352 75.0956C175.008 75.0956 173.664 74.9028 172.416 74.5172C171.984 74.3726 171.6 74.228 171.216 74.0352C171.024 73.9388 170.88 73.8424 170.736 73.746C170.64 73.6978 170.544 73.6014 170.688 73.746C170.64 73.6978 170.544 73.6496 170.496 73.6014C170.304 73.4568 170.544 73.6978 170.544 73.6496C170.4 73.4568 170.64 73.7942 170.64 73.746C170.736 73.9388 170.928 74.4208 170.784 74.6136C171.264 73.9388 169.824 72.059 169.296 72.8302C168.768 73.6014 169.824 74.8546 170.4 75.2884C171.264 75.915 172.224 76.397 173.28 76.6862C176.736 77.6984 180.432 77.1682 183.744 75.915C187.584 74.4208 191.424 71.818 193.152 67.962C194.304 65.1664 194.544 62.0816 193.824 59.1414C193.392 57.2616 192.672 55.0444 191.28 53.5984C190.32 52.6344 189.12 53.0682 188.112 53.6948C187.488 54.0804 186.912 54.5142 186.336 55.0444C185.904 55.3818 185.52 55.8156 185.232 56.2494C184.416 57.7436 185.856 59.4306 187.056 60.1054C187.344 60.25 187.824 60.491 188.016 60.5874C187.92 60.5392 188.064 60.6356 188.112 60.6838C188.256 60.8284 187.92 60.491 188.16 60.732C188.208 60.7802 188.352 60.8766 188.16 60.6838C188.208 60.732 188.352 61.0212 188.208 60.732C188.256 60.7802 188.352 61.1176 188.304 60.9248C188.304 60.973 188.4 61.2622 188.352 61.214C188.4 61.5514 188.4 61.8888 188.352 62.2262C188.064 64.2988 186.624 66.275 185.088 67.6728C183.696 68.9742 181.968 69.8418 180.096 70.1792C179.52 70.3238 178.896 70.3238 178.272 70.2756C178.224 70.2756 178.128 70.2274 178.08 70.2274C178.032 70.2274 177.984 70.1792 177.936 70.1792C178.032 70.1792 178.032 70.2756 177.984 70.2274L178.032 70.2756C178.416 70.5648 178.656 70.9986 178.656 71.4324C178.656 71.336 178.608 71.1914 178.608 71.095C178.512 70.8058 178.416 70.4684 178.272 70.2274C177.744 69.3598 177.072 68.5886 176.256 67.962C175.776 67.5764 175.104 66.9498 174.432 67.1908C173.472 67.5282 172.656 68.6368 171.984 69.408C171.168 70.372 170.4 71.336 169.632 72.3482L169.2 72.8784C168.768 73.4568 170.208 75.3848 170.784 74.6136Z" fill="#2DBE61"/>
<path d="M190.176 80.494C190.176 80.494 200.16 75.0474 200.448 68.7814C200.736 62.5154 199.104 54.948 197.424 55.671C195.744 56.394 196.032 61.0694 196.032 61.0694C196.032 61.0694 192.24 57.6954 190.176 59.3824C188.112 61.0694 193.584 65.552 193.584 65.552C193.584 65.552 189.84 63.1902 187.68 63.865C185.52 64.5398 183.744 66.8052 185.04 67.6246C186.336 68.444 187.584 66.5642 188.592 67.4318C189.6 68.2994 182.208 69.7936 182.208 76.6862L190.176 80.494Z" fill="white"/>
<path d="M190.464 81.1688C191.904 80.3494 193.296 79.4818 194.592 78.4696C196.944 76.6862 199.248 74.5654 200.592 71.8662C201.264 70.4684 201.6 68.926 201.6 67.3836C201.648 65.311 201.456 63.2866 201.168 61.2622C200.976 59.6234 200.544 58.0328 199.968 56.4904C199.536 55.5264 198.864 54.6106 197.664 54.8516C194.928 55.43 194.784 59.1896 194.928 61.4068L197.04 60.3946C195.312 58.8522 192.672 57.358 190.368 58.4184C189.12 58.9968 188.352 60.1054 188.784 61.5032C189.168 62.66 190.032 63.624 190.8 64.4916C191.376 65.1182 192 65.6966 192.672 66.275L194.592 64.9254C193.008 63.9132 191.04 62.9974 189.168 62.9492C187.584 62.9974 186.096 63.624 184.992 64.7326C184.224 65.4074 183.12 66.7088 183.696 67.8174C184.368 69.167 186.192 68.6368 187.248 68.203L187.584 68.0584C187.632 68.0584 187.632 68.1066 187.584 68.0584C187.536 68.0102 187.632 68.1548 187.632 68.1066C187.632 68.0584 187.68 68.1548 187.68 68.1548C187.68 68.1548 187.584 67.962 187.584 68.0584C187.536 67.9138 187.584 67.7692 187.68 67.6246C187.632 67.721 187.872 67.4318 187.68 67.6246C187.872 67.4318 187.776 67.5282 187.632 67.6728C187.488 67.8174 187.392 67.8174 187.296 67.9138L186.48 68.444C185.712 68.926 184.992 69.5044 184.32 70.0828C182.352 71.818 181.2 74.3726 181.152 77.0236C181.152 77.2164 181.296 77.4092 181.488 77.4574L189.408 81.2652C190.224 81.6508 192.096 80.253 190.944 79.7228L183.024 75.915L183.36 76.3488C183.36 74.3726 184.128 72.4446 185.52 71.0468C185.664 70.9022 185.856 70.7576 186 70.613C186 70.613 186.288 70.372 186.096 70.5166L186.336 70.3238C186.624 70.0828 186.96 69.8418 187.296 69.649C187.776 69.3116 188.256 69.0224 188.736 68.685C189.216 68.3476 189.792 67.9138 189.792 67.2872C189.744 66.275 188.256 66.275 187.584 66.4678C187.104 66.6124 185.712 67.48 185.76 66.4678C185.808 65.6966 186.912 64.9736 187.584 64.6844C188.448 64.347 189.744 64.829 190.704 65.2146C191.184 65.4074 191.664 65.6484 192.144 65.8894C192.432 66.0822 192.384 66.034 192.672 66.1786C193.2 66.4196 193.776 66.3714 194.208 65.9858C194.544 65.7448 195.024 65.1664 194.592 64.829C193.392 63.865 192.288 62.7564 191.424 61.455C191.184 61.1176 190.992 60.6838 190.896 60.2982C190.896 60.1536 190.896 59.9608 190.896 59.8162C190.896 60.009 190.944 59.6234 190.896 59.768C190.896 59.768 190.992 59.6716 190.944 59.7198C190.896 59.768 190.992 59.7198 190.992 59.7198C190.992 59.7198 190.752 59.768 190.944 59.768C190.992 59.768 191.04 59.7198 191.136 59.7198C190.992 59.7198 191.28 59.7198 191.328 59.7198L191.664 59.768C192.192 59.8644 192.72 60.1054 193.248 60.3464C193.968 60.732 194.64 61.1658 195.216 61.696C195.792 62.2262 197.376 61.5032 197.328 60.6838C197.28 60.009 197.28 59.286 197.328 58.6112C197.376 58.081 197.472 57.5508 197.568 57.0688C197.616 56.876 197.712 56.6832 197.808 56.4904C197.808 56.4422 198 56.153 197.904 56.3458C198.048 56.153 198.048 56.2494 197.808 56.3458C197.664 56.394 197.472 56.4422 197.28 56.4422C197.328 56.4422 197.232 56.4422 197.232 56.4422C197.232 56.4422 197.52 56.7314 197.472 56.635C197.76 57.0206 197.952 57.4544 198.144 57.9364C198.624 59.3824 198.96 60.8284 199.152 62.3226C199.392 64.1542 199.536 66.034 199.536 67.9138C199.584 69.2152 199.344 70.5166 198.768 71.7216C197.664 73.9388 195.696 75.7704 193.872 77.2164C192.96 77.9394 192 78.6142 191.04 79.1926C190.752 79.3854 190.464 79.53 190.176 79.7228C190.56 79.4818 190.224 79.7228 190.08 79.771C189.696 79.9638 189.072 80.4458 189.312 80.9278C189.552 81.4098 190.128 81.3616 190.464 81.1688Z" fill="#000005"/>
<path d="M197.232 60.8284H197.328L195.696 60.2982C195.552 60.2018 195.744 60.3946 195.792 60.4428C195.84 60.491 195.936 60.6356 196.032 60.7802C196.176 61.0212 196.32 61.2622 196.512 61.5514C196.752 61.9852 196.992 62.4672 197.232 62.9492C197.664 63.9132 198.048 64.9254 198.336 65.9376C198.336 66.034 198.576 66.1304 198.624 66.1304C198.864 66.2268 199.152 66.3714 199.392 66.4196C199.68 66.516 199.92 66.6124 200.208 66.6606C200.256 66.6606 200.592 66.7088 200.592 66.7088C200.256 65.4556 199.776 64.2506 199.2 63.0938C198.912 62.5636 198.624 61.9852 198.24 61.5032C198.096 61.2622 197.904 61.0212 197.712 60.8766C197.088 60.5392 196.416 60.2982 195.696 60.1536C195.696 60.1536 195.36 60.0572 195.312 60.1054C195.264 60.1536 195.648 60.2982 195.6 60.2982C196.176 60.491 196.704 60.6838 197.232 60.8284Z" fill="#000005"/>
<path d="M157.344 195.065L152.496 195.885C152.496 195.885 139.68 200.898 141.36 203.308C143.04 205.718 146.736 207.212 156.288 205.718C165.84 204.223 172.512 199.596 168.144 193.668L157.344 195.065Z" fill="#000005"/>
<path d="M157.008 194.005L152.64 194.728C151.824 194.921 151.056 195.162 150.336 195.547C148.704 196.27 147.072 196.993 145.488 197.861C143.904 198.729 142.272 199.548 141.072 200.801C140.496 201.283 140.16 201.958 140.064 202.681C140.016 203.452 140.496 204.031 140.976 204.561C142.128 205.766 143.616 206.585 145.248 206.923C147.84 207.549 150.528 207.453 153.168 207.212C156.528 206.971 159.888 206.248 163.056 205.091C165.408 204.223 167.856 202.922 169.44 200.898C170.784 199.162 171.072 196.801 170.112 194.824C169.872 194.246 169.536 193.716 169.152 193.186C168.864 192.752 168.336 192.511 167.808 192.607L158.352 193.86L157.008 194.005C156.48 194.101 156.096 194.583 156.144 195.162C156.144 195.21 156.144 195.258 156.144 195.258C156.336 195.837 156.96 196.222 157.584 196.126L166.992 194.873L168.384 194.68L167.04 194.101C167.376 194.535 167.616 194.969 167.856 195.451C167.952 195.644 168 195.837 168.096 196.029C168.144 196.222 168.192 196.463 168.24 196.704C168.288 197.042 168.288 197.427 168.24 197.765C168.144 198.15 168.048 198.536 167.856 198.873C166.896 200.705 164.928 201.862 163.056 202.681C160.32 203.79 157.44 204.513 154.464 204.85C151.92 205.284 149.28 205.332 146.736 205.043C146.352 204.995 146.016 204.946 145.68 204.802C145.248 204.705 144.864 204.561 144.48 204.416L144.24 204.32C144.528 204.464 144.24 204.32 144.192 204.32C144.048 204.223 143.904 204.175 143.712 204.079C143.52 203.982 143.472 203.934 143.376 203.838L143.184 203.693C143.472 203.886 143.184 203.693 143.136 203.645C142.944 203.452 142.752 203.259 142.56 203.067C142.368 202.826 142.512 203.018 142.56 203.067C142.56 203.018 142.464 202.922 142.416 202.874C142.368 202.826 142.368 202.777 142.32 202.777C142.272 202.777 142.416 203.067 142.368 202.826C142.32 202.585 142.368 203.115 142.368 202.922C142.368 202.729 142.416 202.777 142.368 203.018L142.464 202.777C142.512 202.585 142.32 203.018 142.464 202.826C142.512 202.777 142.512 202.729 142.56 202.681C142.608 202.633 142.944 202.247 142.704 202.44C143.808 201.428 145.056 200.56 146.4 199.934C147.888 199.114 149.472 198.391 151.056 197.716C151.584 197.475 152.16 197.234 152.736 196.993C152.88 196.945 152.976 196.897 153.072 196.849C153.216 196.752 152.688 196.897 152.832 196.897C152.928 196.897 152.976 196.897 153.072 196.849L157.632 196.078C159.168 195.885 158.4 193.764 157.008 194.005Z" fill="#000005"/>
<path d="M159.888 184.22C159.888 184.22 158.448 190.776 158.016 192.173C157.584 193.571 146.688 199.066 147.84 199.934C148.992 200.801 151.152 202.006 159.408 199.644C167.664 197.283 167.712 195.981 168.048 194.294C168.384 192.607 168.912 183.16 168.912 183.16L159.888 184.22Z" fill="white"/>
<path d="M159.024 183.497C158.64 185.281 158.208 187.112 157.824 188.896C157.68 189.763 157.44 190.631 157.152 191.499C157.104 191.595 157.248 191.402 157.152 191.499C157.104 191.547 157.104 191.595 157.056 191.595C156.96 191.691 156.864 191.788 156.768 191.884C156.48 192.125 156.192 192.366 155.856 192.559C154.08 193.812 152.208 194.921 150.384 196.078C149.568 196.608 148.752 197.138 147.984 197.716C147.6 198.006 146.976 198.439 146.832 198.97C146.592 199.837 147.6 200.608 148.272 201.042C148.848 201.38 149.472 201.669 150.144 201.813C152.448 202.344 155.04 201.862 157.296 201.331C159.264 200.898 161.184 200.319 163.056 199.644C164.304 199.259 165.504 198.729 166.608 198.102C167.712 197.572 168.48 196.608 168.768 195.451C169.056 193.716 169.248 191.981 169.296 190.245C169.44 188.221 169.584 186.148 169.68 184.076C169.68 183.979 169.68 183.835 169.68 183.69C169.728 183.015 168.768 182.051 168.096 182.148L159.12 183.305C158.592 183.353 159.024 184.22 159.168 184.413C159.408 184.799 159.936 185.329 160.464 185.233L169.44 184.076L167.856 182.533C167.664 186.004 167.52 189.715 167.088 193.041C167.04 193.475 166.944 193.909 166.848 194.342C166.752 194.776 166.464 195.162 166.128 195.451C165.552 195.981 164.832 196.415 164.112 196.704C162.72 197.331 161.28 197.861 159.792 198.247C156.912 199.114 153.792 200.078 150.72 199.982C150.288 199.982 149.856 199.934 149.472 199.885C149.328 199.885 149.136 199.837 148.992 199.789C148.848 199.741 148.992 199.789 148.944 199.789L148.704 199.693L148.368 199.548C148.08 199.403 148.464 199.644 148.224 199.5L147.936 199.307C147.888 199.307 147.888 199.259 147.84 199.259C147.648 199.114 148.032 199.403 147.888 199.307C148.128 199.548 148.32 199.837 148.464 200.175C148.8 201.235 148.512 200.319 148.512 200.367C148.608 200.512 148.416 200.416 148.512 200.416C148.512 200.416 148.608 200.271 148.512 200.367C148.416 200.464 148.56 200.319 148.608 200.271C148.8 200.078 149.04 199.885 149.232 199.693C149.952 199.162 150.672 198.632 151.44 198.15C153.216 196.993 155.04 195.933 156.816 194.728C157.44 194.342 157.968 193.909 158.496 193.427C158.928 192.945 158.976 192.27 159.168 191.691C159.648 189.619 160.128 187.546 160.608 185.474L160.704 184.992C160.8 184.461 160.368 183.931 160.032 183.594C159.936 183.449 159.12 182.967 159.024 183.497Z" fill="#000005"/>
<path d="M197.952 115.102C197.952 115.102 205.344 128.453 202.368 135.876C199.392 143.299 172.368 141.804 172.368 141.804L176.112 185.088C176.112 185.088 157.296 194.583 146.928 186.148C136.56 177.713 134.304 131.152 145.872 120.307C156.192 110.571 197.952 115.102 197.952 115.102Z" fill="#000005"/>
<path d="M196.896 115.632C196.752 115.343 196.848 115.535 196.896 115.632C196.944 115.776 197.088 116.017 197.184 116.21C197.52 116.837 197.808 117.512 198.144 118.138C199.104 120.163 199.92 122.283 200.592 124.404C201.408 126.766 201.84 129.224 201.936 131.731C201.984 132.887 201.84 133.996 201.552 135.105C201.456 135.49 201.264 135.876 201.072 136.213C200.976 136.406 201.12 136.117 201.024 136.261L200.88 136.454C200.784 136.599 200.688 136.695 200.592 136.84L200.4 137.033C200.448 136.984 200.544 136.888 200.4 137.033C200.352 137.081 200.16 137.274 200.016 137.37C199.872 137.466 199.728 137.563 199.584 137.659C199.44 137.756 199.728 137.563 199.536 137.659L199.296 137.804C198.96 137.997 198.624 138.189 198.24 138.334L198 138.43C197.904 138.479 197.664 138.575 197.904 138.479L197.328 138.72C196.464 139.009 195.6 139.298 194.688 139.491L194.352 139.587L194.112 139.635L193.824 139.684L193.44 139.78C192.96 139.876 192.432 139.973 191.952 140.069C189.84 140.407 187.776 140.648 185.664 140.792C184.656 140.84 183.6 140.937 182.544 140.985H182.064H181.296H179.952C177.6 141.033 175.296 140.937 172.944 140.889H172.848C172.368 140.84 171.264 141.178 171.312 141.853L171.696 146.142L172.608 156.457L173.664 168.941L174.624 179.786L174.912 183.353C174.912 183.931 174.96 184.51 175.056 185.04V185.088L175.68 184.317C175.392 184.461 175.104 184.606 174.816 184.751L173.808 185.184C173.712 185.233 173.424 185.329 173.76 185.233L173.424 185.377L172.656 185.666C170.16 186.63 167.568 187.402 164.928 187.98C161.76 188.703 158.448 188.848 155.184 188.462C153.648 188.269 152.16 187.787 150.72 187.161C150 186.823 149.28 186.389 148.608 185.956L148.128 185.618L147.888 185.425C147.792 185.329 147.984 185.522 147.888 185.425C147.792 185.329 147.6 185.184 147.456 185.04C146.208 183.738 145.152 182.196 144.432 180.509C143.424 178.292 142.608 176.026 142.032 173.665C140.592 167.929 139.728 162.048 139.488 156.12C139.152 149.902 139.392 143.684 140.256 137.563C140.976 132.695 142.128 127.537 144.72 123.296V123.247C144.768 123.199 144.768 123.151 144.816 123.103L145.008 122.814C145.152 122.621 145.296 122.38 145.488 122.187C145.776 121.801 146.064 121.464 146.4 121.078L146.64 120.837C146.496 121.03 146.688 120.789 146.736 120.741C146.928 120.596 147.12 120.404 147.264 120.259C147.408 120.114 147.6 119.97 147.792 119.873L148.08 119.681C148.128 119.632 148.272 119.584 148.032 119.681L148.224 119.584C148.656 119.295 149.136 119.054 149.568 118.813L150.24 118.476L150.624 118.331C150.672 118.283 150.912 118.235 150.624 118.331L150.864 118.235C151.968 117.801 153.072 117.415 154.224 117.126C154.848 116.933 155.472 116.789 156.096 116.644L156.336 116.596L156.816 116.499C157.152 116.403 157.536 116.355 157.872 116.307C159.264 116.066 160.608 115.873 162 115.68C164.928 115.343 167.904 115.102 170.88 115.005C176.304 114.812 181.968 114.909 187.488 115.198C190.704 115.391 193.92 115.584 197.088 115.921L197.568 115.969C198.144 116.017 198.72 115.776 199.008 115.294C199.248 114.764 198.768 114.427 198.288 114.379C195.936 114.138 193.584 113.945 191.232 113.8C185.856 113.463 180.432 113.27 175.056 113.318C169.056 113.415 162.96 113.704 157.056 114.909C152.496 115.825 147.408 117.222 144.192 120.789C140.976 124.356 139.488 129.369 138.528 133.948C137.328 140.021 136.752 146.239 136.896 152.408C136.944 158.674 137.568 164.94 138.816 171.062C139.776 175.737 141.12 180.702 143.856 184.606C147.408 189.667 154.128 190.824 159.888 190.438C165.312 190.053 170.736 188.414 175.728 186.148C176.016 186.004 176.304 185.907 176.592 185.763C176.88 185.618 177.264 185.329 177.216 184.992L176.832 180.702L175.92 170.387L174.864 157.903L173.904 147.058L173.616 143.491C173.616 142.913 173.568 142.335 173.472 141.804V141.756L171.936 142.72C174 142.817 176.016 142.865 178.08 142.817C182.304 142.817 186.576 142.576 190.752 141.997C192.864 141.708 194.928 141.274 196.944 140.648C198.672 140.166 200.256 139.346 201.648 138.286C205.152 135.394 204.336 129.803 203.376 125.898C202.416 122.139 200.976 118.476 199.104 115.053L198.912 114.716C198.624 114.234 197.712 114.427 197.328 114.62C196.944 114.716 196.608 115.15 196.896 115.632Z" fill="#000005"/>
<path d="M181.584 74.8064L193.344 76.7826C193.344 76.7826 209.616 115.198 194.4 118.235C179.184 121.271 181.584 74.8064 181.584 74.8064Z" fill="white"/>
<path d="M180.576 75.3847L191.376 77.1682C191.616 77.2164 191.904 77.2645 192.144 77.3127C192.288 77.3127 192.336 77.3609 192.24 77.3127C192.336 77.4573 192.432 77.6501 192.48 77.8429C192.912 78.8551 193.296 79.8674 193.68 80.8795C195.12 84.6873 196.368 88.5915 197.424 92.5439C198.624 97.0747 199.632 101.798 199.776 106.522C199.872 109.944 199.584 114.33 196.896 116.789C196.896 116.789 196.656 116.981 196.56 117.078C196.464 117.174 196.608 117.078 196.608 117.03L196.464 117.126L196.32 117.222C196.128 117.319 196.464 117.126 196.32 117.222C196.176 117.319 196.08 117.367 196.272 117.222C196.224 117.271 195.888 117.415 196.224 117.271L195.984 117.367C195.84 117.415 196.176 117.319 196.032 117.367L195.84 117.415L195.696 117.463C195.696 117.463 195.84 117.415 195.744 117.463L195.456 117.56C195.264 117.608 195.072 117.656 194.88 117.656C194.496 117.704 194.16 117.753 193.776 117.704C192.432 117.656 191.136 117.126 190.128 116.258C187.488 114.089 186.192 110.426 185.28 107.197C184.128 102.859 183.408 98.4243 183.072 93.9899C182.688 89.8447 182.544 85.6995 182.544 81.5543C182.544 79.1925 182.544 76.879 182.64 74.5172V74.1797C182.64 73.9869 181.536 74.4207 181.44 74.4689C181.152 74.6135 180.48 74.9028 180.48 75.2402C180.384 76.9272 180.384 78.6623 180.336 80.3493C180.288 84.3499 180.384 88.3506 180.672 92.3512C180.912 96.9783 181.536 101.509 182.496 106.04C183.312 109.607 184.464 113.511 186.912 116.355C187.824 117.463 189.072 118.283 190.416 118.668C192.144 119.054 193.92 118.861 195.552 118.138C197.424 117.415 199.056 116.162 200.16 114.475C201.072 112.884 201.648 111.101 201.792 109.269C202.32 104.69 201.552 99.9667 200.592 95.5323C199.584 91.0979 198.288 86.7117 196.752 82.4219C196.224 80.9759 195.696 79.4817 195.12 78.0357C194.976 77.6019 194.784 77.1681 194.592 76.7343C194.544 76.5415 194.448 76.3487 194.352 76.1559C194.16 75.9631 193.68 76.0114 193.44 75.9632L190.56 75.4812L183.792 74.3243L182.496 74.1316C182.064 74.0352 181.488 74.4208 181.104 74.6136C181.104 74.7582 180.288 75.3365 180.576 75.3847Z" fill="#000005"/>
<path d="M178.08 78.6142C176.688 85.314 173.904 91.6764 169.968 97.2676C168.816 98.8582 167.616 100.401 166.32 101.847C165.984 102.184 166.224 102.425 166.656 102.377C167.232 102.232 167.712 101.943 168.096 101.461C172.8 96.2072 176.4 89.9894 178.656 83.2896C179.28 81.4098 179.808 79.53 180.192 77.602C180.288 77.1682 179.328 77.5538 179.184 77.602C178.8 77.7948 178.176 78.1804 178.08 78.6142Z" fill="#000005"/>
<path d="M206.064 140.503C206.064 140.503 205.344 147.829 204.624 147.54C203.904 147.251 166.512 147.54 166.512 147.54L167.664 139.925L206.064 140.503Z" fill="white"/>
<path d="M204.912 140.648C204.768 142.19 204.576 143.684 204.336 145.227C204.24 145.66 204.192 146.142 204.048 146.576C203.952 146.865 203.808 147.155 203.76 147.444L203.712 147.492C203.76 147.203 205.968 147.106 204.72 147.299C205.68 147.155 205.968 147.203 205.44 147.106C205.344 147.106 205.248 147.058 205.104 147.058C205.008 147.058 204.912 147.058 204.816 147.058C202.368 146.914 199.872 146.962 197.424 146.962C193.296 146.962 189.168 146.962 185.088 146.962L173.088 147.01L168.864 147.058C168.192 147.058 167.52 147.01 166.848 147.058H166.752L167.664 147.347L168.816 139.732L167.376 140.358L180.432 140.551L201.072 140.84L205.776 140.889C206.112 140.889 207.024 140.792 207.216 140.358C207.408 139.925 206.544 139.925 206.304 139.925L193.248 139.732L172.608 139.443L167.904 139.394C167.52 139.394 166.512 139.539 166.464 140.021L165.312 147.685C165.264 147.974 166.128 147.974 166.224 147.974L171.504 147.926L183.504 147.878C187.728 147.878 192 147.829 196.224 147.829C197.808 147.829 199.44 147.829 201.024 147.829H201.984H202.176H202.56C202.944 147.829 203.28 147.829 203.664 147.878C203.76 147.878 203.856 147.878 203.952 147.878C204.048 147.829 203.664 147.829 203.808 147.878C203.712 147.878 203.376 147.781 203.856 147.878C204.048 147.926 204.24 147.926 204.432 147.926C205.632 147.878 206.112 147.396 206.352 146.335C206.784 144.455 207.072 142.576 207.216 140.696C207.216 140.551 207.264 140.407 207.264 140.214C207.312 139.828 204.96 139.925 204.912 140.648Z" fill="#000005"/>
<path d="M174.48 204.995C177.36 202.777 180.912 201.621 184.32 200.657C185.232 200.319 186.24 200.175 187.2 200.223C187.296 200.223 187.728 200.367 187.44 200.223C187.584 200.319 187.728 200.416 187.824 200.464C188.256 200.753 188.64 201.09 189.024 201.428C190.512 202.681 191.952 204.031 193.296 205.428C193.728 205.814 194.256 206.055 194.832 206.2C195.024 206.248 195.744 206.441 195.408 206.055C193.824 204.368 192.096 202.777 190.272 201.331C188.448 199.885 186.24 198.777 183.888 199.114C182.832 199.307 181.776 199.596 180.768 199.934C179.712 200.271 178.704 200.608 177.648 200.994C175.68 201.717 173.856 202.681 172.176 203.934C171.984 204.079 173.136 204.657 173.232 204.705C173.52 204.85 174.192 205.187 174.48 204.995Z" fill="#000005"/>
<path d="M187.152 198.825C187.152 196.945 187.152 195.017 187.2 193.137C187.248 189.185 187.248 185.233 187.296 181.232C187.344 176.508 187.344 171.785 187.392 167.013L187.488 154.626C187.488 152.408 187.584 150.143 187.536 147.926V147.685C187.536 146.576 185.04 146.673 185.04 147.829C185.04 149.757 185.04 151.637 184.992 153.517C184.992 157.469 184.944 161.47 184.896 165.422C184.848 170.146 184.848 174.87 184.8 179.593C184.752 183.738 184.752 187.835 184.704 191.981C184.704 194.198 184.608 196.415 184.656 198.68C184.656 198.777 184.656 198.825 184.656 198.921C184.656 200.03 187.152 199.934 187.152 198.825Z" fill="#000005"/>
<path d="M172.8 74.951C170.304 82.7594 167.184 91.9174 158.64 94.7612C156.816 95.3878 154.848 95.5324 152.928 95.1468C152.256 95.0022 151.44 94.7612 151.008 94.231C150.576 93.7008 150.912 92.9296 151.392 92.544C151.536 92.3994 151.824 92.1584 152.016 92.2548C151.92 92.2066 151.92 92.2066 152.016 92.303C152.112 92.4476 152.208 92.5922 152.256 92.785C152.448 93.6044 152.4 94.472 152.016 95.2432C151.248 97.123 149.424 98.1352 147.6 98.7136C146.448 99.051 145.248 99.292 144.048 99.3884C142.944 99.533 141.84 99.3402 140.832 98.8582C138.912 97.846 137.136 96.3518 134.832 96.9784C134.304 97.123 134.64 97.9424 134.832 98.2316C135.168 98.7136 135.696 98.9546 136.272 98.81C137.232 98.569 138.144 99.051 138.912 99.533C139.824 100.16 140.832 100.642 141.888 101.027C143.184 101.413 144.576 101.461 145.92 101.172C147.12 101.027 148.272 100.738 149.424 100.401C151.584 99.6776 153.504 98.2316 154.176 95.9662C154.512 94.954 154.464 93.8454 154.128 92.8814C153.696 91.7246 152.784 90.4714 151.488 90.2786C150.528 90.134 149.616 90.616 149.136 91.4836C148.608 92.3994 148.656 93.5562 149.232 94.4238C150.48 96.5446 153.12 97.2194 155.424 97.3158C160.08 97.5086 164.496 94.9058 167.52 91.4836C171.264 87.1938 173.088 81.5544 174.768 76.2042C175.104 75.2884 173.136 73.8906 172.8 74.951Z" fill="#2DBE61"/>
</svg>
