<svg width="32" height="32" viewBox="0 0 32 32" fill="none" xmlns="http://www.w3.org/2000/svg">
<path fill-rule="evenodd" clip-rule="evenodd" d="M12.143 4.80005C11.5631 4.80005 11.093 5.27015 11.093 5.85005C11.093 6.42995 11.5631 6.90005 12.143 6.90005H19.143C19.7229 6.90005 20.193 6.42995 20.193 5.85005C20.193 5.27015 19.7229 4.80005 19.143 4.80005H12.143ZM7.94302 17.4C7.94302 13.1475 11.3904 9.70005 15.643 9.70005C19.8956 9.70005 23.343 13.1475 23.343 17.4C23.343 21.6526 19.8956 25.1 15.643 25.1C11.3904 25.1 7.94302 21.6526 7.94302 17.4ZM15.643 7.60005C10.2306 7.60005 5.84302 11.9877 5.84302 17.4C5.84302 22.8124 10.2306 27.2001 15.643 27.2001C21.0554 27.2001 25.443 22.8124 25.443 17.4C25.443 11.9877 21.0554 7.60005 15.643 7.60005ZM15.629 12.15C16.2089 12.15 16.679 12.6202 16.679 13.2V17.4C16.679 17.9799 16.2089 18.45 15.629 18.45C15.0491 18.45 14.579 17.9799 14.579 17.4V13.2C14.579 12.6202 15.0491 12.15 15.629 12.15ZM23.7495 7.19357C23.3394 6.78352 22.6746 6.78352 22.2646 7.19357C21.8545 7.60362 21.8545 8.26845 22.2646 8.6785L24.3646 10.7785C24.7746 11.1885 25.4394 11.1885 25.8495 10.7785C26.2595 10.3684 26.2595 9.70362 25.8495 9.29357L23.7495 7.19357Z" fill="#1F1F1F"/>
</svg>
