<svg width="30" height="30" viewBox="0 0 30 30" fill="none" xmlns="http://www.w3.org/2000/svg">
<g clip-path="url(#clip0_1584_28705)">
<path fill-rule="evenodd" clip-rule="evenodd" d="M13.706 2.56926C15.4341 2.38735 17.0993 2.56912 18.6445 3.03873C19.305 3.23946 20.0031 2.86677 20.2038 2.20631C20.4046 1.54584 20.0319 0.847709 19.3714 0.64698C17.5169 0.0833498 15.5158 -0.134831 13.4443 0.0832205C11.3798 0.300538 9.44977 0.917496 7.74895 1.86849C6.06113 2.81222 4.5734 4.06421 3.35808 5.55162C2.13946 7.04306 1.2115 8.77113 0.646983 10.6286C0.0833542 12.4831 -0.134832 14.4842 0.0832198 16.5557C0.300537 18.6202 0.917496 20.5502 1.86849 22.251C2.81222 23.9389 4.06422 25.4266 5.55162 26.6419C7.04306 27.8605 8.77113 28.7885 10.6286 29.353C12.4831 29.9166 14.4842 30.1348 16.5557 29.9168C18.6202 29.6995 20.5502 29.0825 22.2511 28.1315C23.9389 27.1878 25.4266 25.9358 26.6419 24.4484C27.8605 22.9569 28.7885 21.2289 29.353 19.3714C29.9166 17.5169 30.135 15.4987 29.9167 13.4431C29.8438 12.7567 29.2282 12.2593 28.5418 12.3322C27.8553 12.4051 27.358 13.0207 27.4309 13.7071C27.6125 15.4179 27.4309 17.0993 26.9613 18.6445C26.4925 20.1868 25.7207 21.6251 24.7062 22.8667C23.6883 24.1124 22.443 25.1602 21.0311 25.9496C19.6322 26.7318 18.0292 27.2481 16.294 27.4307C14.5659 27.6127 12.9007 27.4309 11.3555 26.9613C9.81324 26.4925 8.37493 25.7207 7.13328 24.7062C5.8876 23.6883 4.8398 22.443 4.05036 21.0311C3.26818 19.6322 2.7519 18.0292 2.56926 16.294C2.38735 14.5659 2.56912 12.9007 3.03874 11.3555C3.50746 9.81324 4.27934 8.37493 5.29385 7.13328C6.31167 5.8876 7.55703 4.8398 8.96892 4.05036C10.3678 3.26818 11.9708 2.75191 13.706 2.56926ZM28.3743 5.05986C28.8625 4.57175 28.8625 3.78037 28.3743 3.29225C27.8862 2.80414 27.0949 2.80414 26.6067 3.29225L12.4919 17.4071L8.37616 13.2913C7.88805 12.8032 7.09666 12.8032 6.60855 13.2913C6.12044 13.7795 6.12044 14.5708 6.60855 15.059L11.6081 20.0585C12.0962 20.5466 12.8876 20.5466 13.3757 20.0585L28.3743 5.05986Z" fill="#1F1F1F"/>
</g>
<defs>
<clipPath id="clip0_1584_28705">
<rect width="30" height="30" fill="white"/>
</clipPath>
</defs>
</svg>
