<svg width="228" height="25" viewBox="0 0 228 25" fill="none" xmlns="http://www.w3.org/2000/svg">
<path d="M10.3932 1H9.84432C4.40745 1 0 5.40618 0 10.8415V11.3902C0 16.8255 4.40745 21.2317 9.84432 21.2317H10.3932C15.83 21.2317 20.2375 16.8255 20.2375 11.3902V10.8415C20.2375 5.40618 15.83 1 10.3932 1Z" fill="#FFAE1F"/>
<path d="M28.2474 4.82617C29.9065 4.82617 31.4055 5.51235 32.4757 6.61724C33.5459 5.51235 35.0449 4.82617 36.704 4.82617C39.9546 4.82617 42.5901 7.4609 42.5901 10.7106V16.6187C42.5901 17.5299 41.8437 18.276 40.9323 18.276C40.0208 18.276 39.2745 17.5299 39.2745 16.6187V10.7106C39.2745 9.29196 38.1242 8.14083 36.704 8.14083C35.2837 8.14083 34.1335 9.29071 34.1335 10.7106V16.6187C34.1335 17.5299 33.3871 18.276 32.4757 18.276C31.5643 18.276 30.8179 17.5299 30.8179 16.6187V10.7106C30.8179 9.29196 29.6677 8.14083 28.2474 8.14083C26.8272 8.14083 25.6769 9.29071 25.6769 10.7106V16.6187C25.6769 17.5299 24.9306 18.276 24.0191 18.276C23.1077 18.276 22.3613 17.5299 22.3613 16.6187V6.48475C22.3613 5.5736 23.1077 4.82742 24.0191 4.82742C24.5905 4.82742 25.0968 5.11989 25.3956 5.5636C26.2408 5.0949 27.2122 4.82742 28.2474 4.82742V4.82617Z" fill="#2DBE61"/>
<path d="M56.365 4.82617C55.6836 4.82617 55.0948 5.24363 54.841 5.83482C53.812 5.19613 52.5981 4.82617 51.2966 4.82617C47.5821 4.82617 44.5703 7.83711 44.5703 11.5505C44.5703 15.2638 47.5821 18.2748 51.2966 18.2748C52.5968 18.2748 53.812 17.9048 54.841 17.2661C55.0948 17.8573 55.6836 18.2748 56.365 18.2748C57.2764 18.2748 58.0228 17.5286 58.0228 16.6175V6.4835C58.0228 5.57235 57.2764 4.82617 56.365 4.82617ZM51.2966 14.9601C49.4112 14.9601 47.8859 13.434 47.8859 11.5505C47.8859 9.66692 49.4125 8.14083 51.2966 8.14083C53.1807 8.14083 54.7072 9.66692 54.7072 11.5505C54.7072 13.434 53.1807 14.9601 51.2966 14.9601Z" fill="#2DBE61"/>
<path d="M72.3185 4.82617C71.6396 4.82617 71.052 5.23488 70.7882 5.81732C68.1965 4.22748 64.7621 4.55245 62.5179 6.79597C59.8912 9.42195 59.8912 13.6803 62.5179 16.3062C64.7183 18.506 68.0614 18.8622 70.6344 17.3786V18.2723C70.6344 20.1171 69.1154 21.6357 67.27 21.6357C66.3036 21.6357 65.3822 21.2195 64.7446 20.4946H64.7458C64.7246 20.4696 64.7033 20.4471 64.6808 20.4246C64.0244 19.7684 62.9592 19.7684 62.3029 20.4246C61.6765 21.0507 61.6477 22.0481 62.2153 22.7081C63.4918 24.1642 65.3372 25.0003 67.2738 25.0003C70.9632 25.0003 74 21.9644 74 18.276V11.5517V6.5085C74 5.5836 73.2436 4.82742 72.3185 4.82742V4.82617ZM69.653 13.9265C68.339 15.2401 66.2086 15.2401 64.8946 13.9265C63.5806 12.6129 63.5806 10.4831 64.8946 9.16947C66.2086 7.85586 68.339 7.85586 69.653 9.16947C70.3056 9.82191 70.6331 10.6756 70.6381 11.5305V11.5655C70.6331 12.4204 70.3056 13.274 69.653 13.9265Z" fill="#2DBE61"/>
<path d="M16.0107 6.59123C16.0107 5.66633 15.2543 4.91016 14.3292 4.91016C13.404 4.91016 12.6476 5.66633 12.6476 6.59123L12.6439 12.5219C12.5938 13.8705 11.4849 14.9491 10.1234 14.9491C8.7619 14.9491 7.65294 13.8705 7.60293 12.5219L7.60043 6.59123C7.60043 5.66633 6.84404 4.91016 5.91887 4.91016C4.9937 4.91016 4.2373 5.66633 4.2373 6.59123V12.4444C4.2373 12.4444 4.2373 12.4531 4.2373 12.4569C4.2373 12.4631 4.2373 12.4694 4.2373 12.4756C4.2373 15.7253 6.8728 18.36 10.1234 18.36C13.374 18.36 15.7894 15.939 15.9957 12.8768C16.0045 12.8068 16.0095 12.7356 16.0095 12.6631V6.59249L16.0107 6.59123Z" fill="white"/>
<path d="M81.3 18.36C80.74 18.36 80.256 18.184 79.848 17.832C79.44 17.472 79.236 16.996 79.236 16.404C79.236 16.004 79.328 15.656 79.512 15.36C79.704 15.064 79.956 14.836 80.268 14.676C80.58 14.516 80.924 14.436 81.3 14.436C81.868 14.436 82.352 14.616 82.752 14.976C83.16 15.328 83.364 15.804 83.364 16.404C83.364 16.796 83.268 17.14 83.076 17.436C82.892 17.732 82.644 17.96 82.332 18.12C82.02 18.28 81.676 18.36 81.3 18.36ZM89.9558 18.36C89.1398 18.36 88.4158 18.204 87.7838 17.892C87.1518 17.58 86.6558 17.14 86.2958 16.572C85.9358 15.996 85.7558 15.316 85.7558 14.532C85.7558 13.86 85.9238 13.26 86.2598 12.732C86.5958 12.204 87.1118 11.768 87.8078 11.424C88.5038 11.072 89.3918 10.836 90.4718 10.716C91.5598 10.596 92.8478 10.612 94.3358 10.764L94.3838 12.792C93.4078 12.64 92.5558 12.572 91.8278 12.588C91.0998 12.604 90.4958 12.688 90.0158 12.84C89.5438 12.992 89.1878 13.2 88.9478 13.464C88.7158 13.728 88.5998 14.036 88.5998 14.388C88.5998 14.916 88.7918 15.324 89.1758 15.612C89.5598 15.892 90.0838 16.032 90.7478 16.032C91.3158 16.032 91.8238 15.928 92.2718 15.72C92.7278 15.512 93.0878 15.22 93.3518 14.844C93.6158 14.46 93.7478 14.008 93.7478 13.488V10.452C93.7478 9.948 93.6398 9.512 93.4238 9.144C93.2158 8.768 92.8958 8.48 92.4638 8.28C92.0318 8.072 91.4758 7.968 90.7958 7.968C90.1718 7.968 89.5518 8.064 88.9358 8.256C88.3278 8.44 87.7558 8.728 87.2198 9.12L86.3918 6.924C87.1518 6.42 87.9518 6.06 88.7918 5.844C89.6318 5.628 90.4438 5.52 91.2278 5.52C92.3478 5.52 93.3158 5.696 94.1318 6.048C94.9558 6.4 95.5878 6.94 96.0278 7.668C96.4758 8.388 96.6998 9.304 96.6998 10.416V18H93.9878V16.632C93.5878 17.184 93.0358 17.612 92.3318 17.916C91.6278 18.212 90.8358 18.36 89.9558 18.36ZM105.664 18.36C104.392 18.36 103.26 18.084 102.268 17.532C101.284 16.972 100.508 16.216 99.9403 15.264C99.3723 14.304 99.0883 13.216 99.0883 12C99.0883 11.08 99.2563 10.236 99.5923 9.468C99.9283 8.692 100.4 8.02 101.008 7.452C101.616 6.876 102.328 6.432 103.144 6.12C103.968 5.8 104.864 5.64 105.832 5.64C106.672 5.64 107.452 5.752 108.172 5.976C108.892 6.2 109.552 6.544 110.152 7.008L108.724 9.324C108.348 8.988 107.92 8.74 107.44 8.58C106.968 8.412 106.472 8.328 105.952 8.328C105.168 8.328 104.492 8.472 103.924 8.76C103.364 9.048 102.932 9.464 102.628 10.008C102.324 10.552 102.172 11.212 102.172 11.988C102.172 13.14 102.508 14.044 103.18 14.7C103.86 15.348 104.784 15.672 105.952 15.672C106.536 15.672 107.088 15.564 107.608 15.348C108.128 15.132 108.58 14.836 108.964 14.46L110.332 16.788C109.676 17.276 108.944 17.66 108.136 17.94C107.328 18.22 106.504 18.36 105.664 18.36ZM115.971 18.36C115.155 18.36 114.431 18.204 113.799 17.892C113.167 17.58 112.671 17.14 112.311 16.572C111.951 15.996 111.771 15.316 111.771 14.532C111.771 13.86 111.939 13.26 112.275 12.732C112.611 12.204 113.127 11.768 113.823 11.424C114.519 11.072 115.407 10.836 116.487 10.716C117.575 10.596 118.863 10.612 120.351 10.764L120.399 12.792C119.423 12.64 118.571 12.572 117.843 12.588C117.115 12.604 116.511 12.688 116.031 12.84C115.559 12.992 115.203 13.2 114.963 13.464C114.731 13.728 114.615 14.036 114.615 14.388C114.615 14.916 114.807 15.324 115.191 15.612C115.575 15.892 116.099 16.032 116.763 16.032C117.331 16.032 117.839 15.928 118.287 15.72C118.743 15.512 119.103 15.22 119.367 14.844C119.631 14.46 119.763 14.008 119.763 13.488V10.452C119.763 9.948 119.655 9.512 119.439 9.144C119.231 8.768 118.911 8.48 118.479 8.28C118.047 8.072 117.491 7.968 116.811 7.968C116.187 7.968 115.567 8.064 114.951 8.256C114.343 8.44 113.771 8.728 113.235 9.12L112.407 6.924C113.167 6.42 113.967 6.06 114.807 5.844C115.647 5.628 116.459 5.52 117.243 5.52C118.363 5.52 119.331 5.696 120.147 6.048C120.971 6.4 121.603 6.94 122.043 7.668C122.491 8.388 122.715 9.304 122.715 10.416V18H120.003V16.632C119.603 17.184 119.051 17.612 118.347 17.916C117.643 18.212 116.851 18.36 115.971 18.36ZM131.104 18.36C129.936 18.36 128.9 18.088 127.996 17.544C127.092 17 126.384 16.248 125.872 15.288C125.36 14.328 125.104 13.232 125.104 12C125.104 11.112 125.248 10.284 125.536 9.516C125.832 8.74 126.248 8.064 126.784 7.488C127.328 6.904 127.968 6.452 128.704 6.132C129.44 5.804 130.256 5.64 131.152 5.64C132.184 5.64 133.088 5.848 133.864 6.264C134.64 6.672 135.3 7.252 135.844 8.004L135.172 8.7V0.719999H138.244V18H135.532V15.036L135.964 15.732C135.556 16.492 134.948 17.12 134.14 17.616C133.332 18.112 132.32 18.36 131.104 18.36ZM131.668 15.672C132.34 15.672 132.94 15.524 133.468 15.228C134.004 14.924 134.424 14.5 134.728 13.956C135.032 13.404 135.184 12.752 135.184 12C135.184 11.248 135.032 10.596 134.728 10.044C134.424 9.492 134.008 9.068 133.48 8.772C132.952 8.476 132.348 8.328 131.668 8.328C130.988 8.328 130.38 8.476 129.844 8.772C129.316 9.068 128.9 9.492 128.596 10.044C128.3 10.596 128.152 11.248 128.152 12C128.152 12.752 128.304 13.404 128.608 13.956C128.912 14.5 129.328 14.924 129.856 15.228C130.384 15.524 130.988 15.672 131.668 15.672ZM147.336 18.36C146.032 18.36 144.888 18.096 143.904 17.568C142.92 17.032 142.152 16.288 141.6 15.336C141.056 14.384 140.784 13.276 140.784 12.012C140.784 11.084 140.94 10.232 141.252 9.456C141.572 8.68 142.02 8.008 142.596 7.44C143.18 6.864 143.86 6.42 144.636 6.108C145.42 5.796 146.276 5.64 147.204 5.64C148.212 5.64 149.112 5.82 149.904 6.18C150.696 6.532 151.352 7.032 151.872 7.68C152.4 8.32 152.768 9.072 152.976 9.936C153.192 10.792 153.22 11.728 153.06 12.744H143.676C143.668 13.376 143.816 13.928 144.12 14.4C144.432 14.872 144.872 15.244 145.44 15.516C146.016 15.78 146.692 15.912 147.468 15.912C148.156 15.912 148.816 15.812 149.448 15.612C150.08 15.412 150.668 15.116 151.212 14.724L152.292 16.872C151.916 17.176 151.448 17.44 150.888 17.664C150.328 17.888 149.736 18.06 149.112 18.18C148.496 18.3 147.904 18.36 147.336 18.36ZM143.856 10.56H150.084C150.06 9.752 149.792 9.12 149.28 8.664C148.768 8.2 148.052 7.968 147.132 7.968C146.22 7.968 145.468 8.2 144.876 8.664C144.284 9.12 143.944 9.752 143.856 10.56ZM155.69 18V6H158.762V7.596C159.074 7.148 159.434 6.78 159.842 6.492C160.25 6.204 160.686 5.992 161.15 5.856C161.614 5.712 162.082 5.64 162.554 5.64C163.498 5.64 164.294 5.848 164.942 6.264C165.59 6.68 166.042 7.224 166.298 7.896C166.85 7.064 167.522 6.48 168.314 6.144C169.106 5.808 169.918 5.64 170.75 5.64C171.878 5.64 172.774 5.86 173.438 6.3C174.102 6.74 174.578 7.304 174.866 7.992C175.154 8.68 175.298 9.4 175.298 10.152V18H172.226V11.04C172.226 10.264 172.014 9.64 171.59 9.168C171.174 8.688 170.562 8.448 169.754 8.448C169.234 8.448 168.766 8.56 168.35 8.784C167.942 9.008 167.618 9.32 167.378 9.72C167.146 10.112 167.03 10.56 167.03 11.064V18H163.958V11.04C163.958 10.264 163.746 9.64 163.322 9.168C162.906 8.688 162.294 8.448 161.486 8.448C160.966 8.448 160.498 8.56 160.082 8.784C159.674 9.008 159.35 9.32 159.11 9.72C158.878 10.112 158.762 10.56 158.762 11.064V18H155.69ZM179.779 23.376C179.307 23.376 178.843 23.324 178.387 23.22C177.931 23.116 177.491 22.948 177.067 22.716L177.751 20.112C177.999 20.264 178.275 20.38 178.579 20.46C178.883 20.54 179.159 20.58 179.407 20.58C179.919 20.58 180.335 20.46 180.655 20.22C180.975 19.988 181.219 19.616 181.387 19.104L181.711 18.144L177.007 6H180.355L183.451 14.94L186.463 6H189.715L184.603 19.548C184.219 20.524 183.783 21.288 183.295 21.84C182.807 22.4 182.267 22.796 181.675 23.028C181.091 23.26 180.459 23.376 179.779 23.376Z" fill="#2DBE60"/>
</svg>
