<svg width="99" height="32" viewBox="0 0 99 32" fill="none" xmlns="http://www.w3.org/2000/svg">
<path d="M13.855 0H13.1233C5.87667 0 0 5.875 0 13.1233V13.855C0 21.1017 5.87667 26.9783 13.1233 26.9783H13.855C21.1033 26.9783 26.9783 21.1017 26.9783 13.855V13.1233C26.9783 5.875 21.1033 0 13.855 0ZM21.3433 15.55C21.3433 15.6467 21.3367 15.7417 21.325 15.8367C21.05 19.92 17.65 23.1467 13.4967 23.1467C9.34335 23.1467 5.65167 19.635 5.65167 15.3017V7.455C5.65167 6.83833 5.90333 6.27833 6.31 5.87166C6.71666 5.465 7.27668 5.21334 7.89168 5.21334C9.12502 5.21334 10.1333 6.22333 10.1333 7.455L10.1367 15.3633C10.2033 17.1617 11.6817 18.6 13.4967 18.6C15.3117 18.6 16.7883 17.1617 16.855 15.3633L16.86 7.455C16.86 6.83833 17.1117 6.27833 17.5183 5.87166C17.925 5.465 18.485 5.21334 19.1017 5.21334C20.335 5.21334 21.3433 6.22333 21.3433 7.455V15.55Z" fill="white"/>
<path d="M37.6566 5.09839C39.8683 5.09839 41.8666 6.01338 43.2933 7.48671C44.7199 6.01338 46.7183 5.09839 48.93 5.09839C53.2633 5.09839 56.7766 8.61171 56.7766 12.945V20.8234C56.7766 22.0384 55.7816 23.0334 54.5666 23.0334C53.3516 23.0334 52.3566 22.0384 52.3566 20.8234V12.945C52.3566 11.0534 50.8233 9.51839 48.93 9.51839C47.0366 9.51839 45.5033 11.0517 45.5033 12.945V20.8234C45.5033 22.0384 44.5083 23.0334 43.2933 23.0334C42.0783 23.0334 41.0833 22.0384 41.0833 20.8234V12.945C41.0833 11.0534 39.5499 9.51839 37.6566 9.51839C35.7633 9.51839 34.2299 11.0517 34.2299 12.945V20.8234C34.2299 22.0384 33.2349 23.0334 32.0199 23.0334C30.8049 23.0334 29.8099 22.0384 29.8099 20.8234V7.31006C29.8099 6.09506 30.8049 5.10006 32.0199 5.10006C32.7816 5.10006 33.4566 5.49006 33.8549 6.08173C34.9816 5.45673 36.2766 5.10006 37.6566 5.10006V5.09839Z" fill="white"/>
<path d="M75.14 5.09839C74.2317 5.09839 73.4467 5.65507 73.1083 6.4434C71.7367 5.59173 70.1183 5.09839 68.3833 5.09839C63.4317 5.09839 59.4167 9.1134 59.4167 14.0651C59.4167 19.0167 63.4317 23.0317 68.3833 23.0317C70.1167 23.0317 71.7367 22.5384 73.1083 21.6867C73.4467 22.4751 74.2317 23.0317 75.14 23.0317C76.355 23.0317 77.35 22.0367 77.35 20.8217V7.30839C77.35 6.09339 76.355 5.09839 75.14 5.09839ZM68.3833 18.6117C65.87 18.6117 63.8367 16.5767 63.8367 14.0651C63.8367 11.5534 65.8717 9.51839 68.3833 9.51839C70.895 9.51839 72.93 11.5534 72.93 14.0651C72.93 16.5767 70.895 18.6117 68.3833 18.6117Z" fill="white"/>
<path d="M96.4067 5.09839C95.5017 5.09839 94.7184 5.6434 94.3667 6.42006C90.9117 4.30006 86.3334 4.73339 83.3417 7.72506C79.8401 11.2267 79.8401 16.9051 83.3417 20.4067C86.2751 23.3401 90.7317 23.8151 94.1617 21.8367V23.0284C94.1617 25.4884 92.1367 27.5134 89.6767 27.5134C88.3884 27.5134 87.1601 26.9584 86.3101 25.9917H86.3117C86.2834 25.9584 86.2551 25.9284 86.2251 25.8984C85.3501 25.0234 83.9301 25.0234 83.0551 25.8984C82.2201 26.7334 82.1817 28.0634 82.9384 28.9434C84.6401 30.8851 87.1001 32.0001 89.6817 32.0001C94.6001 32.0001 98.6484 27.9517 98.6484 23.0334V14.0667V7.34172C98.6484 6.10838 97.6401 5.10006 96.4067 5.10006V5.09839ZM92.8534 17.2334C91.1017 18.9851 88.2617 18.9851 86.5101 17.2334C84.7584 15.4817 84.7584 12.6417 86.5101 10.8901C88.2617 9.13839 91.1017 9.13839 92.8534 10.8901C93.7234 11.7601 94.1601 12.8984 94.1667 14.0384V14.0851C94.1601 15.2251 93.7234 16.3634 92.8534 17.2334Z" fill="white"/>
</svg>
