<svg width="99" height="32" viewBox="0 0 99 32" fill="none" xmlns="http://www.w3.org/2000/svg">
<path d="M13.8536 0H13.122C5.8749 0 0 5.8749 0 13.122V13.8536C0 21.1006 5.8749 26.9755 13.122 26.9755H13.8536C21.1006 26.9755 26.9755 21.1006 26.9755 13.8536V13.122C26.9755 5.8749 21.1006 0 13.8536 0Z" fill="#FFAE1F"/>
<path d="M37.6527 5.10107C39.8642 5.10107 41.8623 6.01598 43.2888 7.48916C44.7153 6.01598 46.7135 5.10107 48.9249 5.10107C53.2578 5.10107 56.7708 8.61405 56.7708 12.9469V20.8244C56.7708 22.0393 55.7759 23.0342 54.561 23.0342C53.3461 23.0342 52.3512 22.0393 52.3512 20.8244V12.9469C52.3512 11.0555 50.8181 9.52062 48.9249 9.52062C47.0318 9.52062 45.4986 11.0538 45.4986 12.9469V20.8244C45.4986 22.0393 44.5037 23.0342 43.2888 23.0342C42.0739 23.0342 41.0791 22.0393 41.0791 20.8244V12.9469C41.0791 11.0555 39.5459 9.52062 37.6527 9.52062C35.7596 9.52062 34.2264 11.0538 34.2264 12.9469V20.8244C34.2264 22.0393 33.2315 23.0342 32.0167 23.0342C30.8018 23.0342 29.8069 22.0393 29.8069 20.8244V7.31251C29.8069 6.09764 30.8018 5.10274 32.0167 5.10274C32.7782 5.10274 33.4532 5.4927 33.8515 6.08431C34.978 5.45937 36.2729 5.10274 37.6527 5.10274V5.10107Z" fill="#6BBC60"/>
<path d="M75.1321 5.10107C74.2239 5.10107 73.4389 5.65768 73.1006 6.44594C71.7291 5.59436 70.111 5.10107 68.3761 5.10107C63.425 5.10107 59.4104 9.11565 59.4104 14.0668C59.4104 19.018 63.425 23.0325 68.3761 23.0325C70.1093 23.0325 71.7291 22.5393 73.1006 21.6877C73.4389 22.4759 74.2239 23.0325 75.1321 23.0325C76.347 23.0325 77.3419 22.0377 77.3419 20.8228V7.31085C77.3419 6.09597 76.347 5.10107 75.1321 5.10107ZM68.3761 18.613C65.8631 18.613 63.8299 16.5782 63.8299 14.0668C63.8299 11.5554 65.8647 9.52062 68.3761 9.52062C70.8875 9.52062 72.9223 11.5554 72.9223 14.0668C72.9223 16.5782 70.8875 18.613 68.3761 18.613Z" fill="#6BBC60"/>
<path d="M96.3968 5.10107C95.4919 5.10107 94.7086 5.64602 94.357 6.4226C90.9023 4.30282 86.3245 4.73611 83.3331 7.72747C79.8318 11.2288 79.8318 16.9065 83.3331 20.4078C86.2662 23.3408 90.7224 23.8158 94.152 21.8377V23.0292C94.152 25.489 92.1272 27.5137 89.6675 27.5137C88.3793 27.5137 87.1511 26.9588 86.3011 25.9922H86.3028C86.2745 25.9589 86.2462 25.9289 86.2162 25.8989C85.3413 25.024 83.9214 25.024 83.0465 25.8989C82.2116 26.7338 82.1732 28.0637 82.9298 28.9436C84.6313 30.8851 87.0911 31.9999 89.6725 31.9999C94.5903 31.9999 98.6382 27.952 98.6382 23.0342V14.0685V7.34418C98.6382 6.11097 97.63 5.10274 96.3968 5.10274V5.10107ZM92.8438 17.2348C91.0923 18.9863 88.2526 18.9863 86.5011 17.2348C84.7497 15.4833 84.7497 12.6436 86.5011 10.8921C88.2526 9.14065 91.0923 9.14065 92.8438 10.8921C93.7137 11.762 94.1503 12.9003 94.157 14.0401V14.0868C94.1503 15.2267 93.7137 16.3649 92.8438 17.2348Z" fill="#6BBC60"/>
<path d="M21.3412 7.45579C21.3412 6.22259 20.333 5.21436 19.0998 5.21436C17.8666 5.21436 16.8583 6.22259 16.8583 7.45579L16.8533 15.3633C16.7867 17.1615 15.3085 18.5996 13.4937 18.5996C11.6789 18.5996 10.2007 17.1615 10.134 15.3633L10.1307 7.45579C10.1307 6.22259 9.12248 5.21436 7.88927 5.21436C6.65607 5.21436 5.64783 6.22259 5.64783 7.45579V15.26C5.64783 15.26 5.64783 15.2716 5.64783 15.2766C5.64783 15.285 5.64783 15.2933 5.64783 15.3016C5.64783 19.6345 9.16081 23.1475 13.4937 23.1475C17.8266 23.1475 21.0462 19.9195 21.3212 15.8366C21.3329 15.7433 21.3395 15.6483 21.3395 15.5516V7.45746L21.3412 7.45579Z" fill="white"/>
</svg>
